<?xml version="1.0" encoding="UTF-8"?>
<svg version="1.1" xmlns="http://www.w3.org/2000/svg" width="612" height="408">
<path d="M0 0 C1.875 1.5625 1.875 1.5625 3 4 C3 6.31 3 8.62 3 11 C13.89 11 24.78 11 36 11 C36 8.36 36 5.72 36 3 C37.125 1 37.125 1 39 0 C44.15121951 -0.64390244 44.15121951 -0.64390244 46.8125 1.375 C49.20263961 4.64571736 49.08688392 7.00333956 49 11 C49.9178125 10.95359375 50.835625 10.9071875 51.78125 10.859375 C60.33403008 10.60782264 66.14504387 10.81162823 72.70703125 16.47265625 C81.35381316 25.37189894 80.44824214 37.69808636 80.3984375 49.25 C80.40046293 50.9156914 80.40337826 52.58138192 80.40713501 54.24707031 C80.4115363 57.72339391 80.40519861 61.19948488 80.39111328 64.67578125 C80.37402263 69.10714236 80.38387567 73.53795816 80.40183067 77.96929932 C80.4127282 81.4045006 80.40919497 84.83957494 80.4014473 88.27478027 C80.39946174 89.90767483 80.40184599 91.54058133 80.40888596 93.17346191 C80.48338267 115.30309581 80.48338267 115.30309581 73 124 C65.93833754 129.67399953 58.98009375 130.14693361 50.09619141 130.16113281 C49.33909378 130.16609772 48.58199615 130.17106262 47.80195618 130.17617798 C45.3184821 130.19068162 42.83507182 130.19758083 40.3515625 130.203125 C39.49764294 130.20595238 38.64372337 130.20877975 37.76392746 130.21169281 C33.2472376 130.22663558 28.7305793 130.23589674 24.21386719 130.24023438 C19.56826989 130.24571974 14.92296556 130.26976324 10.2774601 130.29820633 C6.68619967 130.31689838 3.09500902 130.32204174 -0.49629593 130.32357025 C-2.20818309 130.32658118 -3.92006949 130.33455648 -5.63190842 130.34775543 C-25.98247139 130.49350314 -25.98247139 130.49350314 -32.875 124.5 C-33.926875 123.2625 -33.926875 123.2625 -35 122 C-35.556875 121.54625 -36.11375 121.0925 -36.6875 120.625 C-40.46259114 115.95107763 -40.29747379 109.35575282 -40.29052734 103.63720703 C-40.30060318 102.42840881 -40.30060318 102.42840881 -40.31088257 101.19519043 C-40.32977367 98.54933389 -40.33378208 95.90373215 -40.3359375 93.2578125 C-40.34237105 91.40607604 -40.34909982 89.55434057 -40.35610962 87.7026062 C-40.36805976 83.82759241 -40.37179272 79.95266763 -40.37060547 76.07763672 C-40.37040228 71.12926011 -40.39771421 66.18145782 -40.43214989 61.23321724 C-40.45446129 57.41032321 -40.45844173 53.58756656 -40.45738602 49.76461411 C-40.45973521 47.94107965 -40.46852005 46.11754102 -40.48405075 44.2940712 C-40.63969122 24.13521693 -40.63969122 24.13521693 -33.125 15.5625 C-29.54321794 11.97048427 -25.30813463 11.07002862 -20.3515625 10.8046875 C-18.50691406 10.83949219 -18.50691406 10.83949219 -16.625 10.875 C-15.37976563 10.89304688 -14.13453125 10.91109375 -12.8515625 10.9296875 C-11.44003906 10.96449219 -11.44003906 10.96449219 -10 11 C-10.0825 9.741875 -10.165 8.48375 -10.25 7.1875 C-10.23620607 3.29071516 -10.23620607 3.29071516 -8.375 1 C-5.31305259 -0.28924102 -3.28949317 -0.48992451 0 0 Z M-24.87109375 23.0859375 C-28.89146178 27.40455242 -28.31161376 30.80452388 -29 37 C3.01 37 35.02 37 68 37 C68.19725845 30.10052183 68.19725845 30.10052183 65 25 C64.4121875 24.19369141 64.4121875 24.19369141 63.8125 23.37109375 C61.05743725 21.28698378 58.70388066 21.71176592 55.3125 21.8125 C54.13300781 21.83957031 52.95351562 21.86664063 51.73828125 21.89453125 C50.38283203 21.94673828 50.38283203 21.94673828 49 22 C48.34 24.31 47.68 26.62 47 29 C40.375 30 40.375 30 37 30 C36.505 26.04 36.505 26.04 36 22 C25.11 22 14.22 22 3 22 C2.34 24.31 1.68 26.62 1 29 C0.67 29.33 0.34 29.66 0 30 C-2.69082872 29.82364548 -5.32851446 29.38164079 -8 29 C-8.66 26.36 -9.32 23.72 -10 21 C-17.71297447 20.76874626 -17.71297447 20.76874626 -24.87109375 23.0859375 Z M-29 48 C-28.87625 58.4775 -28.7525 68.955 -28.625 79.75 C-28.59100098 83.05483398 -28.55700195 86.35966797 -28.52197266 89.76464844 C-28.48677243 92.37956777 -28.45085182 94.99447754 -28.4140625 97.609375 C-28.40853363 98.28728088 -28.40300476 98.96518677 -28.39730835 99.66363525 C-28.38022483 101.66615423 -28.34977347 103.66854539 -28.31884766 105.67089844 C-28.30552399 106.79896912 -28.29220032 107.92703979 -28.2784729 109.08929443 C-27.9935596 112.06731755 -27.7973665 113.62318388 -26 116 C-21.47180832 118.96379239 -17.44151901 119.43763433 -12.16210938 119.40405273 C-11.4003389 119.41091599 -10.63856842 119.41777924 -9.85371399 119.42485046 C-7.35019996 119.44306529 -4.8473157 119.4392892 -2.34375 119.43359375 C-0.59549761 119.43815768 1.15275298 119.44346388 2.90100098 119.44947815 C6.55923771 119.45839846 10.21725601 119.45599796 13.87548828 119.44604492 C18.55631703 119.43454861 23.23639212 119.45478207 27.91712189 119.48396206 C31.52545942 119.50233303 35.13361656 119.50202997 38.74198914 119.49632454 C40.46751463 119.49617148 42.19305247 119.50220339 43.91853333 119.51461601 C46.33353613 119.52954403 48.74714918 119.51883749 51.16210938 119.50170898 C52.223675 119.51621094 52.223675 119.51621094 53.3066864 119.53100586 C58.32429464 119.45672586 61.18689969 118.22439396 65 115 C67.95244339 111.2430805 68.36941997 108.46173457 68.34057617 103.7409668 C68.34003235 101.85371887 68.34003235 101.85371887 68.33947754 99.92834473 C68.31645569 97.95867737 68.31645569 97.95867737 68.29296875 95.94921875 C68.28994751 94.73544556 68.28692627 93.52167236 68.28381348 92.27111816 C68.26813407 87.74315877 68.22625013 83.21532072 68.1875 78.6875 C68.125625 68.560625 68.06375 58.43375 68 48 C35.99 48 3.98 48 -29 48 Z " fill="#58BFFA" transform="translate(124,133)"/>
<path d="M0 0 C1.875 1.5625 1.875 1.5625 3 4 C3 6.31 3 8.62 3 11 C13.89 11 24.78 11 36 11 C36 11.33 36 11.66 36 12 C24.78 12 13.56 12 2 12 C1.34 9.36 0.68 6.72 0 4 C-2.31 3.67 -4.62 3.34 -7 3 C-7.33 6.3 -7.66 9.6 -8 13 C-13.94 13.33 -19.88 13.66 -26 14 C-25.67 15.65 -25.34 17.3 -25 19 C-23.78441406 19.06058594 -22.56882812 19.12117188 -21.31640625 19.18359375 C-19.73175772 19.26798332 -18.14712298 19.3526321 -16.5625 19.4375 C-15.76005859 19.47681641 -14.95761719 19.51613281 -14.13085938 19.55664062 C-8.11328125 19.88671875 -8.11328125 19.88671875 -7 21 C-6.63239269 23.32817964 -6.29758419 25.6618385 -6 28 C-3.58354218 28.16687448 -3.58354218 28.16687448 -1 28 C1.50847518 25.86132495 1.50847518 25.86132495 2 21 C13.22 21 24.44 21 36 21 C36 21.33 36 21.66 36 22 C25.11 22 14.22 22 3 22 C2.67 24.31 2.34 26.62 2 29 C0 31 0 31 -1.875 31.08203125 C-2.57625 30.99308594 -3.2775 30.90414062 -4 30.8125 C-4.70125 30.73644531 -5.4025 30.66039062 -6.125 30.58203125 C-8 30 -8 30 -10 27 C-10.38499891 25.34450469 -10.72793135 23.6777567 -11 22 C-18.79770812 21.90188148 -18.79770812 21.90188148 -25.625 25 C-27.5209126 28.8599423 -27.5209126 28.8599423 -29 37 C3.01 37 35.02 37 68 37 C68 37.33 68 37.66 68 38 C66.24020309 38.01213028 66.24020309 38.01213028 64.44485474 38.02450562 C53.40827062 38.10186749 42.3718113 38.18958123 31.33539009 38.28752708 C25.66095568 38.33755112 19.98654044 38.38388047 14.31201172 38.421875 C8.83953127 38.45865082 3.36720894 38.50498944 -2.10513687 38.55806351 C-4.19677085 38.57664854 -6.28843877 38.59174117 -8.38012314 38.60334396 C-11.30159577 38.62013632 -14.222703 38.64915387 -17.14404297 38.68115234 C-18.01582184 38.68331253 -18.88760071 38.68547272 -19.78579712 38.68769836 C-24.37091487 38.54615078 -24.37091487 38.54615078 -28 41 C-29.32 41 -30.64 41 -32 41 C-32.33 42.32 -32.66 43.64 -33 45 C-32.195625 44.814375 -31.39125 44.62875 -30.5625 44.4375 C-29.716875 44.293125 -28.87125 44.14875 -28 44 C-27.67 44.33 -27.34 44.66 -27 45 C-24.05348012 45.1199879 -21.12936172 45.17548671 -18.18164062 45.18945312 C-17.25651169 45.19774643 -16.33138275 45.20603973 -15.3782196 45.21458435 C-13.36257162 45.23202614 -11.34690289 45.24718153 -9.33122253 45.26036072 C-6.14674457 45.28131254 -2.96237107 45.3083406 0.2220459 45.33703613 C6.98132425 45.39684689 13.7406505 45.44895672 20.5 45.5 C28.32897203 45.55912054 36.1578925 45.6213314 43.98677063 45.69187927 C47.13386399 45.71856021 50.28096222 45.73931066 53.42810059 45.7598877 C55.3459498 45.77648322 57.26379666 45.79335439 59.18164062 45.81054688 C60.06479446 45.81473129 60.9479483 45.81891571 61.85786438 45.82322693 C67.88615654 45.88615654 67.88615654 45.88615654 69 47 C69.10474204 49.09005977 69.13856445 51.18369525 69.14526367 53.27636719 C69.14862228 53.93172455 69.1519809 54.58708191 69.15544128 55.26229858 C69.16498103 57.44050974 69.16689624 59.61864421 69.16796875 61.796875 C69.17118046 63.30804476 69.17454446 64.8192142 69.17805481 66.3303833 C69.1840545 69.50476807 69.18589397 72.67912558 69.18530273 75.85351562 C69.18520134 79.9167022 69.1988259 83.97971311 69.21607494 88.04285812 C69.22721038 91.16730548 69.22922143 94.29171068 69.22869301 97.41617584 C69.22987186 98.9136541 69.23428834 100.41113349 69.24202538 101.90859222 C69.25185163 104.00786994 69.24893648 106.10677056 69.24291992 108.20605469 C69.24434494 109.39994812 69.24576996 110.59384155 69.24723816 111.82391357 C69.00238147 114.96940703 68.31046104 117.15520249 67 120 C66.9254644 121.2236068 66.9254644 121.2236068 68 123 C69.32 121.68 70.64 120.36 72 119 C71.505 120.98 71.505 120.98 71 123 C71.66 123.33 72.32 123.66 73 124 C71.8233992 124.82820472 70.63295447 125.63674966 69.4375 126.4375 C68.77621094 126.88996094 68.11492187 127.34242188 67.43359375 127.80859375 C62.09306471 130.42313847 55.93940448 130.15179357 50.09619141 130.16113281 C49.33909378 130.16609772 48.58199615 130.17106262 47.80195618 130.17617798 C45.3184821 130.19068162 42.83507182 130.19758083 40.3515625 130.203125 C39.49764294 130.20595238 38.64372337 130.20877975 37.76392746 130.21169281 C33.2472376 130.22663558 28.7305793 130.23589674 24.21386719 130.24023438 C19.56826989 130.24571974 14.92296556 130.26976324 10.2774601 130.29820633 C6.68619967 130.31689838 3.09500902 130.32204174 -0.49629593 130.32357025 C-2.20818309 130.32658118 -3.92006949 130.33455648 -5.63190842 130.34775543 C-25.98247139 130.49350314 -25.98247139 130.49350314 -32.875 124.5 C-33.926875 123.2625 -33.926875 123.2625 -35 122 C-35.556875 121.54625 -36.11375 121.0925 -36.6875 120.625 C-40.46259114 115.95107763 -40.29747379 109.35575282 -40.29052734 103.63720703 C-40.30060318 102.42840881 -40.30060318 102.42840881 -40.31088257 101.19519043 C-40.32977367 98.54933389 -40.33378208 95.90373215 -40.3359375 93.2578125 C-40.34237105 91.40607604 -40.34909982 89.55434057 -40.35610962 87.7026062 C-40.36805976 83.82759241 -40.37179272 79.95266763 -40.37060547 76.07763672 C-40.37040228 71.12926011 -40.39771421 66.18145782 -40.43214989 61.23321724 C-40.45446129 57.41032321 -40.45844173 53.58756656 -40.45738602 49.76461411 C-40.45973521 47.94107965 -40.46852005 46.11754102 -40.48405075 44.2940712 C-40.63969122 24.13521693 -40.63969122 24.13521693 -33.125 15.5625 C-29.54321794 11.97048427 -25.30813463 11.07002862 -20.3515625 10.8046875 C-18.50691406 10.83949219 -18.50691406 10.83949219 -16.625 10.875 C-15.37976563 10.89304688 -14.13453125 10.91109375 -12.8515625 10.9296875 C-11.44003906 10.96449219 -11.44003906 10.96449219 -10 11 C-10.0825 9.741875 -10.165 8.48375 -10.25 7.1875 C-10.23620607 3.29071516 -10.23620607 3.29071516 -8.375 1 C-5.31305259 -0.28924102 -3.28949317 -0.48992451 0 0 Z M-29 48 C-28.87625 58.4775 -28.7525 68.955 -28.625 79.75 C-28.59100098 83.05483398 -28.55700195 86.35966797 -28.52197266 89.76464844 C-28.48677243 92.37956777 -28.45085182 94.99447754 -28.4140625 97.609375 C-28.40853363 98.28728088 -28.40300476 98.96518677 -28.39730835 99.66363525 C-28.38022483 101.66615423 -28.34977347 103.66854539 -28.31884766 105.67089844 C-28.30552399 106.79896912 -28.29220032 107.92703979 -28.2784729 109.08929443 C-27.9935596 112.06731755 -27.7973665 113.62318388 -26 116 C-21.47180832 118.96379239 -17.44151901 119.43763433 -12.16210938 119.40405273 C-11.4003389 119.41091599 -10.63856842 119.41777924 -9.85371399 119.42485046 C-7.35019996 119.44306529 -4.8473157 119.4392892 -2.34375 119.43359375 C-0.59549761 119.43815768 1.15275298 119.44346388 2.90100098 119.44947815 C6.55923771 119.45839846 10.21725601 119.45599796 13.87548828 119.44604492 C18.55631703 119.43454861 23.23639212 119.45478207 27.91712189 119.48396206 C31.52545942 119.50233303 35.13361656 119.50202997 38.74198914 119.49632454 C40.46751463 119.49617148 42.19305247 119.50220339 43.91853333 119.51461601 C46.33353613 119.52954403 48.74714918 119.51883749 51.16210938 119.50170898 C52.223675 119.51621094 52.223675 119.51621094 53.3066864 119.53100586 C58.32429464 119.45672586 61.18689969 118.22439396 65 115 C67.95244339 111.2430805 68.36941997 108.46173457 68.34057617 103.7409668 C68.34003235 101.85371887 68.34003235 101.85371887 68.33947754 99.92834473 C68.31645569 97.95867737 68.31645569 97.95867737 68.29296875 95.94921875 C68.28994751 94.73544556 68.28692627 93.52167236 68.28381348 92.27111816 C68.26813407 87.74315877 68.22625013 83.21532072 68.1875 78.6875 C68.125625 68.560625 68.06375 58.43375 68 48 C35.99 48 3.98 48 -29 48 Z " fill="#55BDF8" transform="translate(124,133)"/>
<path d="M0 0 C1.10021484 -0.01836914 1.10021484 -0.01836914 2.22265625 -0.03710938 C6.06063514 -0.04759566 7.85847074 0.00981383 11.125 2.1875 C12.28716154 5.24232461 12.23013524 8.19722162 12.1875 11.4375 C12.17847656 12.32953125 12.16945312 13.2215625 12.16015625 14.140625 C12.14855469 14.81609375 12.13695312 15.4915625 12.125 16.1875 C13.18460938 16.30867188 14.24421875 16.42984375 15.3359375 16.5546875 C16.72401324 16.72350752 18.11203119 16.89280308 19.5 17.0625 C20.54800781 17.18044922 20.54800781 17.18044922 21.6171875 17.30078125 C26.8984375 17.9609375 26.8984375 17.9609375 29.125 20.1875 C29.35052341 23.04315359 29.44928763 25.7700351 29.4375 28.625 C29.45361328 29.40166016 29.46972656 30.17832031 29.48632812 30.97851562 C29.49126418 36.70927258 29.49126418 36.70927258 27.81201172 38.90185547 C25.0821118 40.98226834 22.29946669 40.72078134 18.9375 40.875 C17.02904297 40.97361328 17.02904297 40.97361328 15.08203125 41.07421875 C13.61830078 41.13029297 13.61830078 41.13029297 12.125 41.1875 C12.14820313 41.93515625 12.17140625 42.6828125 12.1953125 43.453125 C12.21335938 44.43796875 12.23140625 45.4228125 12.25 46.4375 C12.27320313 47.41203125 12.29640625 48.3865625 12.3203125 49.390625 C12.12145953 52.23819951 11.67938946 53.81787132 10.125 56.1875 C7.10638236 57.69680882 3.99508697 57.37188844 0.6875 57.375 C0.00623047 57.38724609 -0.67503906 57.39949219 -1.37695312 57.41210938 C-5.10329809 57.42305848 -6.69491571 57.30755619 -9.875 55.1875 C-10.8873147 50.49404093 -10.90363766 45.96998955 -10.875 41.1875 C-11.85082031 41.15011719 -12.82664063 41.11273438 -13.83203125 41.07421875 C-15.10433594 41.00847656 -16.37664062 40.94273437 -17.6875 40.875 C-18.95207031 40.81699219 -20.21664062 40.75898438 -21.51953125 40.69921875 C-25.07657165 40.15675974 -25.76907943 39.91993681 -27.875 37.1875 C-28.22661438 34.25738016 -28.38477565 31.61530775 -28.375 28.6875 C-28.40335937 27.91535156 -28.43171875 27.14320313 -28.4609375 26.34765625 C-28.46875 24.09375 -28.46875 24.09375 -27.875 20.1875 C-24.67307118 17.26326058 -21.93634156 16.80894201 -17.6875 16.9375 C-16.39779297 16.96070313 -16.39779297 16.96070313 -15.08203125 16.984375 C-12.875 17.1875 -12.875 17.1875 -10.875 18.1875 C-10.89820313 17.37925781 -10.92140625 16.57101563 -10.9453125 15.73828125 C-10.96335938 14.66964844 -10.98140625 13.60101563 -11 12.5 C-11.02320313 11.44425781 -11.04640625 10.38851562 -11.0703125 9.30078125 C-10.52971348 0.68363286 -7.79033166 0.0067742 0 0 Z " fill="#52BDFB" transform="translate(142.875,187.8125)"/>
<path d="M0 0 C4.29 0 8.58 0 13 0 C13.70125 1.711875 14.4025 3.42375 15.125 5.1875 C17.52420695 10.95930644 20.10570498 16.62939848 22.765625 22.28515625 C24 25 24 25 25 28 C27.99263579 22.23549664 30.67210293 16.46165693 33.01953125 10.40625 C34.47829505 6.82617629 36.22105408 3.43082427 38 0 C42.29 0 46.58 0 51 0 C51 15.51 51 31.02 51 47 C47.7 47 44.4 47 41 47 C39.34920558 45.34920558 39.77450553 43.36263821 39.68359375 41.08984375 C39.64169922 40.10048828 39.59980469 39.11113281 39.55664062 38.09179688 C39.51732422 37.05087891 39.47800781 36.00996094 39.4375 34.9375 C39.39431641 33.89271484 39.35113281 32.84792969 39.30664062 31.77148438 C39.20018775 29.18113116 39.0981724 26.59067814 39 24 C38.52820313 25.16015625 38.52820313 25.16015625 38.046875 26.34375 C31.34453782 42.65546218 31.34453782 42.65546218 29 45 C26.32941149 45.14115161 23.67567762 45.04247107 21 45 C17.26285906 37.81196721 14.05392376 30.50392695 11 23 C10.67 30.92 10.34 38.84 10 47 C6.7 47 3.4 47 0 47 C0 31.49 0 15.98 0 0 Z " fill="#55BDF8" transform="translate(451,174)"/>
<path d="M0 0 C1.33417969 0.01740234 1.33417969 0.01740234 2.6953125 0.03515625 C4.02175781 0.04869141 4.02175781 0.04869141 5.375 0.0625 C6.18195313 0.07410156 6.98890625 0.08570313 7.8203125 0.09765625 C9.72323368 0.09765625 11.626985 0.05575119 13.52734375 -0.04296875 C18.35752553 -0.21308836 21.88411986 -0.33700462 26.3203125 1.72265625 C31.92950815 7.05139211 33.59097362 11.40728321 33.98046875 19.0546875 C33.73581737 23.70306376 32.52059402 27.30440363 29.8203125 31.09765625 C24.93792235 35.08328086 21.20615864 36.19325565 14.953125 36.328125 C12.8203125 36.09765625 12.8203125 36.09765625 7.8203125 34.09765625 C7.8203125 38.71765625 7.8203125 43.33765625 7.8203125 48.09765625 C4.1903125 48.09765625 0.5603125 48.09765625 -3.1796875 48.09765625 C-3.20433046 41.42244743 -3.22252017 34.74726485 -3.23461914 28.07202148 C-3.23966075 25.79923034 -3.24649387 23.52644245 -3.25512695 21.25366211 C-3.26720011 17.99462074 -3.27291737 14.73562208 -3.27734375 11.4765625 C-3.28250504 10.45365616 -3.28766632 9.43074982 -3.29298401 8.37684631 C-3.29305954 7.4359465 -3.29313507 6.49504669 -3.29321289 5.52563477 C-3.2954335 4.69290543 -3.29765411 3.86017609 -3.29994202 3.00221252 C-3.12540265 0.23790853 -2.76603528 0.12392631 0 0 Z M9.3828125 10.53515625 C7.0697576 14.32856629 7.03249159 17.76862016 7.8203125 22.09765625 C9.74360596 24.9469799 11.08088276 25.8132602 14.2578125 27.03515625 C17.6364276 27.1175615 19.17994437 26.1512759 21.8203125 24.09765625 C23.05777944 20.38525543 23.36372931 16.9559156 22.8203125 13.09765625 C21.42346244 10.45066905 21.42346244 10.45066905 18.8203125 9.09765625 C14.94745411 8.54439077 12.77549376 8.53434423 9.3828125 10.53515625 Z " fill="#52BDFA" transform="translate(302.1796875,185.90234375)"/>
<path d="M0 0 C3.96 0 7.92 0 12 0 C22.9816087 26.73103328 22.9816087 26.73103328 26.6875 36.4375 C27.37392578 38.22994141 27.37392578 38.22994141 28.07421875 40.05859375 C29 43 29 43 29 47 C25.37 47 21.74 47 18 47 C15 40.5 15 40.5 15 36 C6.585 36.495 6.585 36.495 -2 37 C-3.98 41.95 -3.98 41.95 -6 47 C-9.96 47 -13.92 47 -18 47 C-17.42256029 42.5530505 -16.27754709 38.95619437 -14.4375 34.875 C-11.38558704 27.98943604 -8.57744017 21.01909147 -5.80444336 14.01708984 C-3.93775964 9.3126532 -2.01786758 4.64172015 0 0 Z M5 15 C4.32694982 16.60149886 3.66177773 18.20631029 3 19.8125 C2.62875 20.70582031 2.2575 21.59914062 1.875 22.51953125 C0.83366763 25.0331433 0.83366763 25.0331433 1 28 C4.3 28 7.6 28 11 28 C10.25107424 25.00429695 9.42395057 22.16646256 8.4375 19.25 C8.16808594 18.45078125 7.89867187 17.6515625 7.62109375 16.828125 C7.41613281 16.22484375 7.21117187 15.6215625 7 15 C6.34 15 5.68 15 5 15 Z " fill="#6CC0ED" transform="translate(232,174)"/>
<path d="M0 0 C1.23556641 0.01740234 1.23556641 0.01740234 2.49609375 0.03515625 C3.32238281 0.04417969 4.14867187 0.05320313 5 0.0625 C5.63808594 0.07410156 6.27617187 0.08570313 6.93359375 0.09765625 C6.93359375 0.75765625 6.93359375 1.41765625 6.93359375 2.09765625 C7.92359375 1.43765625 8.91359375 0.77765625 9.93359375 0.09765625 C15.27049806 -0.57335804 21.00895978 -0.82183783 25.93359375 1.59765625 C30.60028906 5.48656901 32.53401033 8.9957355 33.3125 15.0390625 C33.5678647 21.62088161 32.97354703 25.85663578 28.93359375 31.09765625 C24.90912229 34.82765419 21.89220468 36.24085162 16.43359375 36.22265625 C15.66015625 36.22523438 14.88671875 36.2278125 14.08984375 36.23046875 C11.93359375 36.09765625 11.93359375 36.09765625 8.93359375 35.09765625 C8.60359375 39.38765625 8.27359375 43.67765625 7.93359375 48.09765625 C4.30359375 48.09765625 0.67359375 48.09765625 -3.06640625 48.09765625 C-3.09104921 41.42244743 -3.10923892 34.74726485 -3.12133789 28.07202148 C-3.1263795 25.79923034 -3.13321262 23.52644245 -3.1418457 21.25366211 C-3.15391886 17.99462074 -3.15963612 14.73562208 -3.1640625 11.4765625 C-3.16922379 10.45365616 -3.17438507 9.43074982 -3.17970276 8.37684631 C-3.17977829 7.4359465 -3.17985382 6.49504669 -3.17993164 5.52563477 C-3.18215225 4.69290543 -3.18437286 3.86017609 -3.18666077 3.00221252 C-3.01655752 0.30816641 -2.69494938 0.12736056 0 0 Z M9.55859375 10.47265625 C7.11483838 14.42026107 7.09429755 18.56848124 7.93359375 23.09765625 C9.44634594 24.97397043 10.58172872 25.92779038 12.74609375 26.97265625 C16.35530947 27.17889715 18.06651631 26.26389254 20.93359375 24.09765625 C22.25107399 19.84797912 22.51363391 15.30216991 20.93359375 11.09765625 C16.87207506 8.38997713 13.86999399 7.97658243 9.55859375 10.47265625 Z " fill="#6FC0EE" transform="translate(265.06640625,185.90234375)"/>
<path d="M0 0 C3.42495782 2.15996084 6.22474977 5.17114782 7.4375 9.05859375 C7.90526149 11.42291544 7.96509715 13.57261233 7.9296875 15.98046875 C7.92066406 16.7796875 7.91164063 17.57890625 7.90234375 18.40234375 C7.89074219 19.005625 7.87914062 19.60890625 7.8671875 20.23046875 C-10.6371755 22.47828725 -10.6371755 22.47828725 -15.1328125 20.23046875 C-13.8238553 23.35244353 -13.8238553 23.35244353 -11.1328125 25.23046875 C-7.08139131 25.4890701 -5.58943581 25.53488429 -2.1328125 23.23046875 C1.08109427 22.81842942 2.43393272 22.94943862 5.1796875 24.73046875 C6.015 25.47296875 6.015 25.47296875 6.8671875 26.23046875 C6.26512849 28.9397343 5.52105866 30.71881457 3.3046875 32.453125 C-2.04104964 35.46010214 -7.08692512 36.18053677 -13.1328125 35.23046875 C-18.43645398 33.52637776 -22.13705664 31.02367813 -25.1328125 26.23046875 C-26.9944104 20.39579612 -27.14422169 13.14460177 -25.0703125 7.35546875 C-19.551101 -1.54648528 -9.94625108 -3.58866568 0 0 Z M-15.1328125 11.23046875 C-15.1328125 11.56046875 -15.1328125 11.89046875 -15.1328125 12.23046875 C-10.8428125 12.23046875 -6.5528125 12.23046875 -2.1328125 12.23046875 C-5.35845093 7.13123334 -5.35845093 7.13123334 -8.6328125 6.66796875 C-11.8360542 7.38869813 -13.08046094 8.72203907 -15.1328125 11.23046875 Z " fill="#65C2F3" transform="translate(531.1328125,186.76953125)"/>
<path d="M0 0 C4.41113302 3.83576784 6.43317036 7.37075294 7.25390625 13.18359375 C7.52029279 19.37922914 6.71472534 24.5060014 2.875 29.5 C-2.43511616 33.81446938 -7.05955974 34.88347764 -13.75 34.7734375 C-19.10226584 34.15722268 -23.4968918 31.64173028 -27.125 27.6875 C-30.65964169 22.17585533 -30.09885973 14.72598598 -29.125 8.5 C-23.2731982 -1.95932574 -11.07789233 -5.37109931 0 0 Z M-16.7890625 8.7421875 C-19.21821812 11.93844489 -19.35195505 15.57986726 -19.125 19.5 C-17.33700172 22.8009199 -16.14702962 24.0807058 -12.6875 25.5 C-9.35843446 25.5 -7.75957537 24.47593152 -5.125 22.5 C-3.53747395 19.3249479 -3.843765 15.96399201 -4.125 12.5 C-5.13375212 9.68990481 -5.45895417 8.83302292 -8.125 7.5 C-12.73211506 6.98333994 -12.73211506 6.98333994 -16.7890625 8.7421875 Z " fill="#53BDFA" transform="translate(366.125,187.5)"/>
<path d="M0 0 C4.33333333 0 8.66666667 0 13 0 C13.96550781 -0.05800781 14.93101562 -0.11601562 15.92578125 -0.17578125 C26.19981647 -0.59053469 26.19981647 -0.59053469 29.6875 2.125 C34.89107273 8.59430664 34.24634174 15.45045107 34.125 23.375 C34.11597656 24.49261719 34.10695313 25.61023438 34.09765625 26.76171875 C34.07418457 29.50790512 34.03831655 32.25398063 34 35 C30.37 35 26.74 35 23 35 C22.505 22.625 22.505 22.625 22 10 C15.36980013 9.35284977 15.36980013 9.35284977 12 12 C11.49095616 14.4157113 11.49095616 14.4157113 11.48828125 17.2265625 C11.45283203 18.2578125 11.41738281 19.2890625 11.38085938 20.3515625 C11.34702148 21.97191406 11.34702148 21.97191406 11.3125 23.625 C11.27833984 24.71296875 11.24417969 25.8009375 11.20898438 26.921875 C11.12632479 29.61421567 11.06149158 32.30709271 11 35 C7.37 35 3.74 35 0 35 C0 23.45 0 11.9 0 0 Z " fill="#52BEFA" transform="translate(389,186)"/>
<path d="M0 0 C29.04 0 58.08 0 88 0 C87.34 0.33 86.68 0.66 86 1 C85.896875 1.969375 85.79375 2.93875 85.6875 3.9375 C85.460625 4.948125 85.23375 5.95875 85 7 C80.85948411 9.37927755 76.60075751 9.30224435 71.95263672 9.30639648 C71.15693268 9.31472 70.36122864 9.32304352 69.54141235 9.33161926 C66.92078721 9.35564519 64.30041095 9.36447966 61.6796875 9.37109375 C59.85555955 9.38006156 58.03143235 9.38918344 56.20730591 9.39845276 C52.38932508 9.41492217 48.57143178 9.42263987 44.75341797 9.42553711 C39.85584533 9.43093697 34.95909119 9.4686913 30.06175041 9.51428127 C26.29742396 9.54397682 22.53329711 9.55125893 18.76886368 9.55226326 C16.96268058 9.55647597 15.15649744 9.56895219 13.35042953 9.58978081 C10.82919005 9.61655749 8.30988196 9.6119136 5.78857422 9.59936523 C5.04045471 9.61419952 4.29233521 9.62903381 3.52154541 9.64431763 C1.44015503 9.61473083 1.44015503 9.61473083 -2 9 C-3.99206381 6.58113094 -5 5.1546014 -5 2 C-3.35 1.67 -1.7 1.34 0 1 C0 0.67 0 0.34 0 0 Z " fill="#54BCF8" transform="translate(100,253)"/>
<path d="M0 0 C2.57161458 0.03255208 5.14322917 0.06510417 7.71484375 0.09765625 C7.71484375 3.39765625 7.71484375 6.69765625 7.71484375 10.09765625 C9.01421875 10.07703125 10.31359375 10.05640625 11.65234375 10.03515625 C13.00650008 10.01366171 14.36240458 10.02617426 15.71484375 10.09765625 C16.71484375 11.09765625 16.71484375 11.09765625 16.83984375 14.59765625 C16.71484375 18.09765625 16.71484375 18.09765625 15.71484375 19.09765625 C13.07484375 19.09765625 10.43484375 19.09765625 7.71484375 19.09765625 C8.20984375 27.51265625 8.20984375 27.51265625 8.71484375 36.09765625 C11.35484375 36.09765625 13.99484375 36.09765625 16.71484375 36.09765625 C17.0078125 42.15234375 17.0078125 42.15234375 16.71484375 44.09765625 C12.66284033 46.79899186 9.47180375 46.74707058 4.71484375 46.09765625 C1.02153056 44.35172638 -0.76966254 43.25795396 -2.4375 39.50390625 C-3.4792815 35.31757691 -3.50469022 31.51304428 -3.41015625 27.22265625 C-3.40113281 26.43890625 -3.39210938 25.65515625 -3.3828125 24.84765625 C-3.35943688 22.9308557 -3.32357278 21.01421434 -3.28515625 19.09765625 C-4.93515625 18.76765625 -6.58515625 18.43765625 -8.28515625 18.09765625 C-8.28515625 15.78765625 -8.28515625 13.47765625 -8.28515625 11.09765625 C-6.63515625 10.76765625 -4.98515625 10.43765625 -3.28515625 10.09765625 C-3.29675781 9.45957031 -3.30835938 8.82148438 -3.3203125 8.1640625 C-3.32933594 7.33777344 -3.33835937 6.51148438 -3.34765625 5.66015625 C-3.35925781 4.83644531 -3.37085938 4.01273438 -3.3828125 3.1640625 C-3.24381204 0.22281267 -2.9444484 0.12583113 0 0 Z " fill="#52BEFA" transform="translate(431.28515625,175.90234375)"/>
<path d="M0 0 C2.97 0 5.94 0 9 0 C9 0.66 9 1.32 9 2 C9.845625 1.814375 10.69125 1.62875 11.5625 1.4375 C15.31949182 0.95933741 18.30248727 1.21783385 22 2 C22.66 2.66 23.32 3.32 24 4 C23.01 4.66 22.02 5.32 21 6 C21 6.33 21 6.66 21 7 C16.545 7.495 16.545 7.495 12 8 C11.67 9.32 11.34 10.64 11 12 C10.01 12 9.02 12 8 12 C8.25076157 19.22785569 8.25076157 19.22785569 10.375 26.0625 C14.47225207 29.08666224 19.02286877 29.42505553 24 30 C24 30.99 24 31.98 24 33 C20.37 33 16.74 33 13 33 C13 32.34 13 31.68 13 31 C11.68 31.33 10.36 31.66 9 32 C8.67 36.95 8.34 41.9 8 47 C5.36 47 2.72 47 0 47 C0 31.49 0 15.98 0 0 Z " fill="#55BEF9" transform="translate(263,186)"/>
<path d="M0 0 C1.33417969 0.01740234 1.33417969 0.01740234 2.6953125 0.03515625 C4.02175781 0.04869141 4.02175781 0.04869141 5.375 0.0625 C6.18195313 0.07410156 6.98890625 0.08570313 7.8203125 0.09765625 C9.72323368 0.09765625 11.626985 0.05575119 13.52734375 -0.04296875 C18.35752553 -0.21308836 21.88411986 -0.33700462 26.3203125 1.72265625 C31.92950815 7.05139211 33.59097362 11.40728321 33.98046875 19.0546875 C33.73581737 23.70306376 32.52059402 27.30440363 29.8203125 31.09765625 C24.93792235 35.08328086 21.20615864 36.19325565 14.953125 36.328125 C12.8203125 36.09765625 12.8203125 36.09765625 7.8203125 34.09765625 C7.8203125 38.71765625 7.8203125 43.33765625 7.8203125 48.09765625 C4.1903125 48.09765625 0.5603125 48.09765625 -3.1796875 48.09765625 C-3.20433046 41.42244743 -3.22252017 34.74726485 -3.23461914 28.07202148 C-3.23966075 25.79923034 -3.24649387 23.52644245 -3.25512695 21.25366211 C-3.26720011 17.99462074 -3.27291737 14.73562208 -3.27734375 11.4765625 C-3.28250504 10.45365616 -3.28766632 9.43074982 -3.29298401 8.37684631 C-3.29305954 7.4359465 -3.29313507 6.49504669 -3.29321289 5.52563477 C-3.2954335 4.69290543 -3.29765411 3.86017609 -3.29994202 3.00221252 C-3.12540265 0.23790853 -2.76603528 0.12392631 0 0 Z M10.9453125 2.16015625 C6.88311024 3.26451922 3.91807218 2.95135618 -0.1796875 2.09765625 C-1.33379004 4.40586133 -1.3007172 5.70549901 -1.29321289 8.27197266 C-1.29313736 9.13271393 -1.29306183 9.9934552 -1.29298401 10.88027954 C-1.28782272 11.81052948 -1.28266144 12.74077942 -1.27734375 13.69921875 C-1.2759288 14.65081879 -1.27451385 15.60241882 -1.27305603 16.58285522 C-1.26744762 19.62948722 -1.25489369 22.67604638 -1.2421875 25.72265625 C-1.23717358 27.78515519 -1.23261049 29.84765528 -1.22851562 31.91015625 C-1.21747546 36.97268442 -1.20020517 42.03515798 -1.1796875 47.09765625 C2.96124948 47.30736184 2.96124948 47.30736184 6.8203125 46.09765625 C7.35705143 40.73675032 7.35705143 40.73675032 5.3203125 36.09765625 C4.8253125 35.76765625 4.3303125 35.43765625 3.8203125 35.09765625 C4.8103125 34.60265625 4.8103125 34.60265625 5.8203125 34.09765625 C5.31427258 31.92891373 4.82047437 30.09797998 3.8203125 28.09765625 C4.4803125 28.09765625 5.1403125 28.09765625 5.8203125 28.09765625 C5.8203125 27.35515625 5.8203125 26.61265625 5.8203125 25.84765625 C5.8203125 21.75469178 5.92190503 18.09057833 6.8203125 14.09765625 C6.9646875 13.35515625 7.1090625 12.61265625 7.2578125 11.84765625 C7.4434375 11.27015625 7.6290625 10.69265625 7.8203125 10.09765625 C8.4803125 9.76765625 9.1403125 9.43765625 9.8203125 9.09765625 C9.8203125 8.43765625 9.8203125 7.77765625 9.8203125 7.09765625 C10.38234375 7.26136719 10.944375 7.42507812 11.5234375 7.59375 C13.95090306 8.12630622 16.08920931 8.19664306 18.5703125 8.16015625 C19.76914062 8.14662109 19.76914062 8.14662109 20.9921875 8.1328125 C21.89710938 8.11541016 21.89710938 8.11541016 22.8203125 8.09765625 C24.14865073 13.24496691 24.88004082 19.2499503 22.99609375 24.3125 C21.8203125 26.09765625 21.8203125 26.09765625 18.8203125 27.09765625 C17.90602911 29.00474468 17.90602911 29.00474468 17.8203125 31.09765625 C18.4803125 31.75765625 19.1403125 32.41765625 19.8203125 33.09765625 C22.25748508 32.82730991 22.25748508 32.82730991 24.8203125 32.09765625 C25.5834375 31.91203125 26.3465625 31.72640625 27.1328125 31.53515625 C27.6896875 31.39078125 28.2465625 31.24640625 28.8203125 31.09765625 C28.8203125 29.77765625 28.8203125 28.45765625 28.8203125 27.09765625 C29.4803125 27.09765625 30.1403125 27.09765625 30.8203125 27.09765625 C32.4143567 17.73545716 32.4143567 17.73545716 30.0078125 8.91015625 C29.2859375 7.98203125 28.5640625 7.05390625 27.8203125 6.09765625 C27.1603125 5.10765625 26.5003125 4.11765625 25.8203125 3.09765625 C20.43285715 0.82295288 16.48346667 0.59456267 10.9453125 2.16015625 Z M9.3828125 10.53515625 C7.0697576 14.32856629 7.03249159 17.76862016 7.8203125 22.09765625 C9.74360596 24.9469799 11.08088276 25.8132602 14.2578125 27.03515625 C17.6364276 27.1175615 19.17994437 26.1512759 21.8203125 24.09765625 C23.05777944 20.38525543 23.36372931 16.9559156 22.8203125 13.09765625 C21.42346244 10.45066905 21.42346244 10.45066905 18.8203125 9.09765625 C14.94745411 8.54439077 12.77549376 8.53434423 9.3828125 10.53515625 Z " fill="#65C2F4" transform="translate(302.1796875,185.90234375)"/>
<path d="M0 0 C2.31 0 4.62 0 7 0 C7.33 3.3 7.66 6.6 8 10 C4 11 4 11 1 11 C0.67 12.98 0.34 14.96 0 17 C-0.66 17 -1.32 17 -2 17 C-2 18.32 -2 19.64 -2 21 C-2.66 21 -3.32 21 -4 21 C-4 23.31 -4 25.62 -4 28 C-1.02148438 27.95117188 -1.02148438 27.95117188 1.95703125 27.90234375 C4 28 4 28 7 29 C6.67 30.65 6.34 32.3 6 34 C1.05 34.33 -3.9 34.66 -9 35 C-9 35.99 -9 36.98 -9 38 C-9.66 38 -10.32 38 -11 38 C-11 39.98 -11 41.96 -11 44 C-13.64 44 -16.28 44 -19 44 C-18.96867683 37.48478148 -17.46445323 31.75396197 -15.25 25.6875 C-14.89010986 24.6655957 -14.89010986 24.6655957 -14.52294922 23.62304688 C-12.8052105 19.11772058 -10.78213145 16.15380961 -7 13 C-6.34 13 -5.68 13 -5 13 C-5.061875 12.05125 -5.12375 11.1025 -5.1875 10.125 C-5.125625 9.09375 -5.06375 8.0625 -5 7 C-4.01 6.34 -3.02 5.68 -2 5 C-0.79549696 2.44816596 -0.79549696 2.44816596 0 0 Z " fill="#51BDFA" transform="translate(236,175)"/>
<path d="M0 0 C1.875 1.5625 1.875 1.5625 3 4 C3 6.31 3 8.62 3 11 C13.89 11 24.78 11 36 11 C36 11.33 36 11.66 36 12 C24.78 12 13.56 12 2 12 C1.34 9.36 0.68 6.72 0 4 C-2.31 3.67 -4.62 3.34 -7 3 C-7.33 6.3 -7.66 9.6 -8 13 C-13.94 13.33 -19.88 13.66 -26 14 C-25.67 15.65 -25.34 17.3 -25 19 C-23.78441406 19.06058594 -22.56882812 19.12117188 -21.31640625 19.18359375 C-19.73175772 19.26798332 -18.14712298 19.3526321 -16.5625 19.4375 C-15.76005859 19.47681641 -14.95761719 19.51613281 -14.13085938 19.55664062 C-8.11328125 19.88671875 -8.11328125 19.88671875 -7 21 C-6.63239269 23.32817964 -6.29758419 25.6618385 -6 28 C-3.58354218 28.16687448 -3.58354218 28.16687448 -1 28 C1.50847518 25.86132495 1.50847518 25.86132495 2 21 C13.22 21 24.44 21 36 21 C36 21.33 36 21.66 36 22 C25.11 22 14.22 22 3 22 C2.67 24.31 2.34 26.62 2 29 C0 31 0 31 -1.875 31.08203125 C-2.57625 30.99308594 -3.2775 30.90414062 -4 30.8125 C-4.70125 30.73644531 -5.4025 30.66039062 -6.125 30.58203125 C-8 30 -8 30 -10 27 C-10.38499891 25.34450469 -10.72793135 23.6777567 -11 22 C-18.79770812 21.90188148 -18.79770812 21.90188148 -25.625 25 C-27.5209126 28.8599423 -27.5209126 28.8599423 -29 37 C3.01 37 35.02 37 68 37 C68 37.33 68 37.66 68 38 C66.24686493 38.0154612 66.24686493 38.0154612 64.45831299 38.03123474 C53.45183011 38.12892834 42.44540427 38.23165867 31.43901443 38.33933926 C25.78032629 38.39453841 20.12163295 38.44795369 14.46289062 38.49731445 C9.00342036 38.54500224 3.5440129 38.5973468 -1.91538239 38.65294075 C-3.99979339 38.67334426 -6.0842216 38.69206065 -8.16866302 38.70907402 C-11.0848361 38.73316227 -14.00089071 38.76321097 -16.91699219 38.79467773 C-17.78158051 38.8004332 -18.64616882 38.80618866 -19.53695679 38.81211853 C-20.33338593 38.82190735 -21.12981506 38.83169617 -21.95037842 38.84178162 C-22.98463015 38.85146044 -22.98463015 38.85146044 -24.03977585 38.8613348 C-26.12219465 39.00864398 -27.99324729 39.43698378 -30 40 C-31.89455962 34.31632113 -31.14711018 29.50196983 -29 24 C-28.34 24 -27.68 24 -27 24 C-27 23.34 -27 22.68 -27 22 C-27.66 22 -28.32 22 -29 22 C-29 20.68 -29 19.36 -29 18 C-30.91466367 18.12177688 -30.91466367 18.12177688 -33 19 C-34.0409066 20.64142963 -35.04504326 22.30712215 -36 24 C-36.66 24 -37.32 24 -38 24 C-36.60735329 19.26500118 -33.95659261 15.88290188 -30 13 C-25.43558456 11.05589713 -21.55747418 10.78193445 -16.625 10.875 C-15.37976563 10.89304688 -14.13453125 10.91109375 -12.8515625 10.9296875 C-11.44003906 10.96449219 -11.44003906 10.96449219 -10 11 C-10.0825 9.741875 -10.165 8.48375 -10.25 7.1875 C-10.23620607 3.29071516 -10.23620607 3.29071516 -8.375 1 C-5.31305259 -0.28924102 -3.28949317 -0.48992451 0 0 Z " fill="#69BDE8" transform="translate(124,133)"/>
<path d="M0 0 C32.01 0 64.02 0 97 0 C97.04125 11.116875 97.0825 22.23375 97.125 33.6875 C97.14320801 37.19205811 97.16141602 40.69661621 97.18017578 44.30737305 C97.18920898 48.60119629 97.18920898 48.60119629 97.19088745 50.61408997 C97.19394988 52.01388319 97.20096592 53.41367127 97.21115112 54.81343079 C97.2258394 56.93910833 97.22781038 59.06446468 97.22705078 61.19018555 C97.231492 62.38709518 97.23593323 63.58400482 97.24050903 64.81718445 C97.00227583 67.96988246 96.31467691 70.15024458 95 73 C94.9254644 74.2236068 94.9254644 74.2236068 96 76 C97.32 74.68 98.64 73.36 100 72 C99.505 73.98 99.505 73.98 99 76 C99.66 76.33 100.32 76.66 101 77 C99.8233992 77.82820472 98.63295447 78.63674966 97.4375 79.4375 C96.77621094 79.88996094 96.11492187 80.34242188 95.43359375 80.80859375 C90.04049007 83.44887725 83.84869957 83.14322982 77.95336914 83.11352539 C76.79603775 83.11374443 76.79603775 83.11374443 75.61532593 83.1139679 C73.08857317 83.11327638 70.56189598 83.10551994 68.03515625 83.09765625 C66.27396179 83.09578936 64.51276682 83.09436674 62.75157166 83.09336853 C58.13368273 83.08956467 53.51582564 83.07975273 48.89794922 83.06866455 C44.17871532 83.05840446 39.45947623 83.05386108 34.74023438 83.04882812 C25.49347565 83.03812842 16.24674048 83.02107778 7 83 C7 82.67 7 82.34 7 82 C7.95577942 81.99191315 8.91155884 81.98382629 9.89630127 81.97549438 C18.90145404 81.8980263 27.90645584 81.8102853 36.91141129 81.71247292 C41.541008 81.6625165 46.17058197 81.61618637 50.80029297 81.578125 C55.26780532 81.54126397 59.73512707 81.49490173 64.2024765 81.44193649 C65.90728158 81.4233969 67.61212751 81.40828732 69.31699371 81.39665604 C71.70404091 81.3797861 74.09065203 81.35074957 76.47753906 81.31884766 C77.53597771 81.31560738 77.53597771 81.31560738 78.61579895 81.31230164 C83.65566009 81.24903512 83.65566009 81.24903512 88 79 C88.66 77.35 89.32 75.7 90 74 C62.28 73.67 34.56 73.34 6 73 C6 72.34 6 71.68 6 71 C7.0014505 71.00888245 8.002901 71.01776489 9.03469849 71.0269165 C18.48053027 71.10806517 27.92629116 71.16799554 37.37239265 71.20724869 C42.22855299 71.22810775 47.08443152 71.2563947 51.94042969 71.30175781 C56.62831256 71.34527551 61.31592468 71.36914976 66.00399399 71.37950897 C67.79095598 71.38688971 69.57790344 71.40130271 71.36474991 71.42292023 C73.87125718 71.45203345 76.37665115 71.45595277 78.88330078 71.45410156 C79.61913895 71.46848267 80.35497711 71.48286377 81.1131134 71.49768066 C86.20642339 71.45707963 89.12851833 70.28568407 93 67 C95.34046339 63.77723099 95.27113137 60.76722806 95.31884766 56.85449219 C95.33890869 55.59620605 95.35896973 54.33791992 95.37963867 53.04150391 C95.39099854 51.72327637 95.4023584 50.40504883 95.4140625 49.046875 C95.43170654 47.83209473 95.44935059 46.61731445 95.4675293 45.36572266 C95.53060246 40.82728317 95.57678486 36.28862165 95.625 31.75 C95.810625 16.52875 95.810625 16.52875 96 1 C64.32 1 32.64 1 0 1 C0 0.67 0 0.34 0 0 Z " fill="#90CEF3" transform="translate(96,180)"/>
<path d="M0 0 C3.3 0 6.6 0 10 0 C10 11.55 10 23.1 10 35 C6.7 35 3.4 35 0 35 C0 23.45 0 11.9 0 0 Z " fill="#66BFF1" transform="translate(375,186)"/>
<path d="M0 0 C2.32472205 2.85306797 3.7508258 5.54074837 5 9 C6.32 6.03 7.64 3.06 9 0 C9.66 1.32 10.32 2.64 11 4 C11.66 4.66 12.32 5.32 13 6 C11.35 6.66 9.7 7.32 8 8 C8 9.32 8 10.64 8 12 C9.98 11.67 11.96 11.34 14 11 C13.87625 10.278125 13.7525 9.55625 13.625 8.8125 C14.05684539 5.57365957 14.52778646 5.2003872 16.9375 3.1875 C20 1 20 1 21 1 C21 9.58 21 18.16 21 27 C20.67 27 20.34 27 20 27 C19.67 19.74 19.34 12.48 19 5 C18.2575 6.815 17.515 8.63 16.75 10.5 C11.21653144 23.78346856 11.21653144 23.78346856 9 26 C6.32941149 26.14115161 3.67567762 26.04247107 1 26 C-1.52930941 21.03467539 -4.02509831 16.05311027 -6.375 11 C-6.88160156 9.9171875 -6.88160156 9.9171875 -7.3984375 8.8125 C-8 7 -8 7 -7 5 C-6.34 5.33 -5.68 5.66 -5 6 C-4.375 8.5625 -4.375 8.5625 -4 11 C-2.35 11 -0.7 11 1 11 C0.7525 9.39125 0.7525 9.39125 0.5 7.75 C0 4 0 4 0 0 Z " fill="#62C1F6" transform="translate(471,193)"/>
<path d="M0 0 C2.64 0 5.28 0 8 0 C8.33 0.66 8.66 1.32 9 2 C10.11375 1.649375 11.2275 1.29875 12.375 0.9375 C16 0 16 0 18 1 C18 1.99 18 2.98 18 4 C19.43750191 5.68798827 19.43750191 5.68798827 21 7 C17.30579253 8.84710374 13.08416571 9 9 9 C8.97494385 9.6612085 8.9498877 10.32241699 8.92407227 11.00366211 C8.80846898 13.98182305 8.68558246 16.9596392 8.5625 19.9375 C8.52318359 20.97841797 8.48386719 22.01933594 8.44335938 23.09179688 C8.40146484 24.08115234 8.35957031 25.07050781 8.31640625 26.08984375 C8.26141968 27.46450806 8.26141968 27.46450806 8.20532227 28.86694336 C8 31 8 31 7 32 C4 32.125 4 32.125 1 32 C0 31 0 31 -0.11352539 28.04077148 C-0.10828857 26.74727783 -0.10305176 25.45378418 -0.09765625 24.12109375 C-0.0962413 23.4344313 -0.09482635 22.74776886 -0.09336853 22.04029846 C-0.08775479 19.83932199 -0.07520007 17.63844591 -0.0625 15.4375 C-0.05748676 13.94856917 -0.05292355 12.45963676 -0.04882812 10.97070312 C-0.03778093 7.31376925 -0.02050713 3.65689442 0 0 Z " fill="#54BDF9" transform="translate(390,188)"/>
<path d="M0 0 C4.41113302 3.83576784 6.43317036 7.37075294 7.25390625 13.18359375 C7.52029279 19.37922914 6.71472534 24.5060014 2.875 29.5 C-3.13333492 34.38177212 -8.60138289 35.07565042 -16.125 34.5 C-19.1875 33.5 -19.1875 33.5 -21.125 32.5 C-17.85586376 31.46884721 -15.26458652 31.5361016 -11.875 31.9375 C-10.53695313 32.09025391 -10.53695313 32.09025391 -9.171875 32.24609375 C-8.49640625 32.32988281 -7.8209375 32.41367188 -7.125 32.5 C-7.125 31.84 -7.125 31.18 -7.125 30.5 C-6.320625 30.37625 -5.51625 30.2525 -4.6875 30.125 C-3.841875 29.91875 -2.99625 29.7125 -2.125 29.5 C-1.795 28.84 -1.465 28.18 -1.125 27.5 C-0.465 27.5 0.195 27.5 0.875 27.5 C0.875 26.51 0.875 25.52 0.875 24.5 C1.535 24.17 2.195 23.84 2.875 23.5 C4.97456067 17.201318 3.91234969 11.61204906 1.875 5.5 C1.215 5.5 0.555 5.5 -0.125 5.5 C-0.125 4.84 -0.125 4.18 -0.125 3.5 C-1.115 3.5 -2.105 3.5 -3.125 3.5 C-3.56457031 3.01917969 -4.00414062 2.53835937 -4.45703125 2.04296875 C-6.80497223 -0.12901412 -8.66543507 -0.00237853 -11.8125 -0.1875 C-12.80636719 -0.25324219 -13.80023438 -0.31898438 -14.82421875 -0.38671875 C-15.58347656 -0.42410156 -16.34273438 -0.46148437 -17.125 -0.5 C-17.125 0.16 -17.125 0.82 -17.125 1.5 C-19.105 2.49 -19.105 2.49 -21.125 3.5 C-21.125 4.49 -21.125 5.48 -21.125 6.5 C-19.805 7.16 -18.485 7.82 -17.125 8.5 C-17.23199219 9.24765625 -17.33898437 9.9953125 -17.44921875 10.765625 C-17.62904297 12.24289063 -17.62904297 12.24289063 -17.8125 13.75 C-18.00392578 15.21179688 -18.00392578 15.21179688 -18.19921875 16.703125 C-18.11114609 20.0220735 -17.43507463 21.16838622 -15.125 23.5 C-11.80214354 24.57992835 -10.48393109 24.6196437 -7.125 23.5 C-7.455 24.49 -7.785 25.48 -8.125 26.5 C-10.765 26.5 -13.405 26.5 -16.125 26.5 C-16.125 25.84 -16.125 25.18 -16.125 24.5 C-17.0840625 24.0359375 -17.0840625 24.0359375 -18.0625 23.5625 C-20.125 22.5 -20.125 22.5 -21.125 21.5 C-21.16592937 19.16702567 -21.16741723 16.83294775 -21.125 14.5 C-22.115 14.83 -23.105 15.16 -24.125 15.5 C-24.455 14.84 -24.785 14.18 -25.125 13.5 C-26.6766502 15.0516502 -26.2944916 16.53729761 -26.3125 18.6875 C-26.28096429 22.63577146 -25.63612262 25.81663861 -24.125 29.5 C-28.81480575 24.9614783 -29.31493911 22.82958484 -29.4375 16.25 C-29.47488281 14.94546875 -29.51226562 13.6409375 -29.55078125 12.296875 C-28.9178381 6.65264799 -26.55435738 3.68077349 -22.25 0.125 C-15.96784121 -3.11126362 -6.34782975 -3.07773564 0 0 Z " fill="#59BEF6" transform="translate(366.125,187.5)"/>
<path d="M0 0 C2 1 2 1 2 1 Z M1.125 1.4375 C2.03507813 1.53933594 2.94515625 1.64117187 3.8828125 1.74609375 C4.58148437 1.82988281 5.28015625 1.91367188 6 2 C6 2.66 6 3.32 6 4 C3.69 4 1.38 4 -1 4 C-1.33 6.31 -1.66 8.62 -2 11 C-1.00097656 11 -0.00195312 11 1.02734375 11 C5.68489583 11 10.34244792 11 15 11 C15.33 10.34 15.66 9.68 16 9 C16.99 8.67 17.98 8.34 19 8 C20.36623674 10.73247348 20.128426 12.98198902 20 16 C17.11511578 18.88488422 8.92311852 17.86606093 5 18 C2.55898249 17.84263881 0.39408433 17.51301807 -2 17 C-2.33 19.97 -2.66 22.94 -3 26 C-3.66 25.67 -4.32 25.34 -5 25 C-5.99 25 -6.98 25 -8 25 C-8 24.01 -8 23.02 -8 22 C-8.66 22 -9.32 22 -10 22 C-10.749938 8.14697859 -10.749938 8.14697859 -6 2 C-3.37684968 0.68842484 -1.76966564 1.10350012 1.125 1.4375 Z " fill="#53BEFA" transform="translate(517,189)"/>
<path d="M0 0 C2.57161458 0.03255208 5.14322917 0.06510417 7.71484375 0.09765625 C7.71484375 3.39765625 7.71484375 6.69765625 7.71484375 10.09765625 C9.01421875 10.07703125 10.31359375 10.05640625 11.65234375 10.03515625 C13.00650008 10.01366171 14.36240458 10.02617426 15.71484375 10.09765625 C16.71484375 11.09765625 16.71484375 11.09765625 16.83984375 14.59765625 C16.71484375 18.09765625 16.71484375 18.09765625 15.71484375 19.09765625 C13.07484375 19.09765625 10.43484375 19.09765625 7.71484375 19.09765625 C8.20984375 27.51265625 8.20984375 27.51265625 8.71484375 36.09765625 C11.35484375 36.09765625 13.99484375 36.09765625 16.71484375 36.09765625 C17.0078125 42.15234375 17.0078125 42.15234375 16.71484375 44.09765625 C12.66284033 46.79899186 9.47180375 46.74707058 4.71484375 46.09765625 C1.02153056 44.35172638 -0.76966254 43.25795396 -2.4375 39.50390625 C-3.4792815 35.31757691 -3.50469022 31.51304428 -3.41015625 27.22265625 C-3.40113281 26.43890625 -3.39210938 25.65515625 -3.3828125 24.84765625 C-3.35943688 22.9308557 -3.32357278 21.01421434 -3.28515625 19.09765625 C-4.93515625 18.76765625 -6.58515625 18.43765625 -8.28515625 18.09765625 C-8.28515625 15.78765625 -8.28515625 13.47765625 -8.28515625 11.09765625 C-6.63515625 10.76765625 -4.98515625 10.43765625 -3.28515625 10.09765625 C-3.29675781 9.45957031 -3.30835938 8.82148438 -3.3203125 8.1640625 C-3.32933594 7.33777344 -3.33835937 6.51148438 -3.34765625 5.66015625 C-3.35925781 4.83644531 -3.37085938 4.01273438 -3.3828125 3.1640625 C-3.24381204 0.22281267 -2.9444484 0.12583113 0 0 Z M-2.28515625 1.09765625 C-1.95515625 4.39765625 -1.62515625 7.69765625 -1.28515625 11.09765625 C-2.93515625 11.42765625 -4.58515625 11.75765625 -6.28515625 12.09765625 C-6.28515625 13.74765625 -6.28515625 15.39765625 -6.28515625 17.09765625 C-4.63515625 17.09765625 -2.98515625 17.09765625 -1.28515625 17.09765625 C-1.29301147 17.92958496 -1.29301147 17.92958496 -1.30102539 18.77832031 C-1.32186656 21.30142068 -1.33483907 23.82450289 -1.34765625 26.34765625 C-1.35603516 27.22035156 -1.36441406 28.09304687 -1.37304688 28.9921875 C-1.37788086 30.25869141 -1.37788086 30.25869141 -1.3828125 31.55078125 C-1.38804932 32.32583008 -1.39328613 33.10087891 -1.39868164 33.89941406 C-1.28552623 36.09049223 -0.89068073 37.99403486 -0.28515625 40.09765625 C0.37484375 40.09765625 1.03484375 40.09765625 1.71484375 40.09765625 C2.04484375 41.08765625 2.37484375 42.07765625 2.71484375 43.09765625 C4.69484375 42.60265625 4.69484375 42.60265625 6.71484375 42.09765625 C7.20984375 39.12765625 7.20984375 39.12765625 7.71484375 36.09765625 C7.05484375 36.09765625 6.39484375 36.09765625 5.71484375 36.09765625 C5.85504067 33.2847692 6.0017233 30.4724874 6.15234375 27.66015625 C6.19166016 26.85771484 6.23097656 26.05527344 6.27148438 25.22851562 C6.6015625 19.2109375 6.6015625 19.2109375 7.71484375 18.09765625 C10.04302339 17.73004894 12.37668225 17.39524044 14.71484375 17.09765625 C14.71484375 15.77765625 14.71484375 14.45765625 14.71484375 13.09765625 C12.40484375 12.43765625 10.09484375 11.77765625 7.71484375 11.09765625 C7.05484375 7.79765625 6.39484375 4.49765625 5.71484375 1.09765625 C3.07484375 1.09765625 0.43484375 1.09765625 -2.28515625 1.09765625 Z " fill="#5DBFF7" transform="translate(431.28515625,175.90234375)"/>
<path d="M0 0 C3 0.375 3 0.375 4.8125 1.75 C7.20263961 5.02071736 7.08688392 7.37833956 7 11.375 C7.9178125 11.32859375 8.835625 11.2821875 9.78125 11.234375 C18.1373951 10.98860603 24.15075561 11.1691443 30.58984375 16.75390625 C31.77859506 17.90972816 32.89846673 19.13577507 34 20.375 C33.67 21.035 33.34 21.695 33 22.375 C32.01 21.715 31.02 21.055 30 20.375 C30 19.715 30 19.055 30 18.375 C27.69 18.375 25.38 18.375 23 18.375 C23.185625 19.138125 23.37125 19.90125 23.5625 20.6875 C24 23.375 24 23.375 23 26.375 C22.46439453 25.65376953 22.46439453 25.65376953 21.91796875 24.91796875 C19.14945328 22.69075162 16.81840977 22.86105989 13.3125 22.6875 C12.13300781 22.62175781 10.95351562 22.55601562 9.73828125 22.48828125 C8.83464844 22.45089844 7.93101562 22.41351563 7 22.375 C6.67 23.695 6.34 25.015 6 26.375 C6 23.735 6 21.095 6 18.375 C6.66 18.375 7.32 18.375 8 18.375 C8 17.055 8 15.735 8 14.375 C6.68 13.715 5.36 13.055 4 12.375 C4 9.405 4 6.435 4 3.375 C1.03 4.035 -1.94 4.695 -5 5.375 C-5.33 4.715 -5.66 4.055 -6 3.375 C-4.09456498 0.83441997 -3.22246552 0.40280819 0 0 Z " fill="#53BDFA" transform="translate(166,132.625)"/>
<path d="M0 0 C1.33417969 0.01740234 1.33417969 0.01740234 2.6953125 0.03515625 C4.02175781 0.04869141 4.02175781 0.04869141 5.375 0.0625 C6.18195313 0.07410156 6.98890625 0.08570313 7.8203125 0.09765625 C9.72323368 0.09765625 11.626985 0.05575119 13.52734375 -0.04296875 C18.35752553 -0.21308836 21.88411986 -0.33700462 26.3203125 1.72265625 C31.93390346 7.05556766 33.55567488 11.40005549 34.00390625 19.0390625 C33.72871092 23.62369958 32.1265884 27.17797704 29.8203125 31.09765625 C29.3253125 29.11765625 29.3253125 29.11765625 28.8203125 27.09765625 C29.4803125 27.09765625 30.1403125 27.09765625 30.8203125 27.09765625 C31.48850754 15.88504449 31.48850754 15.88504449 26.8203125 6.09765625 C26.4903125 5.10765625 26.1603125 4.11765625 25.8203125 3.09765625 C18.13980787 1.9800968 18.13980787 1.9800968 10.5703125 3.16015625 C6.8203125 4.09765625 6.8203125 4.09765625 -0.1796875 2.09765625 C-0.5096875 16.94765625 -0.8396875 31.79765625 -1.1796875 47.09765625 C1.4603125 46.76765625 4.1003125 46.43765625 6.8203125 46.09765625 C6.8203125 43.45765625 6.8203125 40.81765625 6.8203125 38.09765625 C7.1503125 38.09765625 7.4803125 38.09765625 7.8203125 38.09765625 C7.8203125 41.39765625 7.8203125 44.69765625 7.8203125 48.09765625 C4.1903125 48.09765625 0.5603125 48.09765625 -3.1796875 48.09765625 C-3.20433046 41.42244743 -3.22252017 34.74726485 -3.23461914 28.07202148 C-3.23966075 25.79923034 -3.24649387 23.52644245 -3.25512695 21.25366211 C-3.26720011 17.99462074 -3.27291737 14.73562208 -3.27734375 11.4765625 C-3.28250504 10.45365616 -3.28766632 9.43074982 -3.29298401 8.37684631 C-3.29305954 7.4359465 -3.29313507 6.49504669 -3.29321289 5.52563477 C-3.2954335 4.69290543 -3.29765411 3.86017609 -3.29994202 3.00221252 C-3.12540265 0.23790853 -2.76603528 0.12392631 0 0 Z " fill="#8AD0ED" transform="translate(302.1796875,185.90234375)"/>
<path d="M0 0 C0 0.66 0 1.32 0 2 C0.99 2.33 1.98 2.66 3 3 C3.98275588 5.94826763 4.13414725 7.92652504 4.125 11 C4.12886719 12.299375 4.12886719 12.299375 4.1328125 13.625 C3.95965248 16.72150852 3.55382273 18.48573604 1.25 20.625 C-1.19766691 22.12079644 -3.17678559 22.60788689 -6 23 C-6.33 24.32 -6.66 25.64 -7 27 C-8.45880109 26.85892253 -9.91703551 26.71197585 -11.375 26.5625 C-12.59316406 26.44068359 -12.59316406 26.44068359 -13.8359375 26.31640625 C-16 26 -16 26 -18 25 C-20.75752873 19.90917772 -22.20682712 14.80933445 -21 9 C-20.01 8.34 -19.02 7.68 -18 7 C-17.67 7.66 -17.34 8.32 -17 9 C-16.34 9 -15.68 9 -15 9 C-14.9175 10.093125 -14.835 11.18625 -14.75 12.3125 C-14.37989701 16.03443943 -14.37989701 16.03443943 -11.9375 17.8125 C-11.298125 18.204375 -10.65875 18.59625 -10 19 C-10 19.66 -10 20.32 -10 21 C-4.3742447 20.93108712 -4.3742447 20.93108712 0 17.9375 C1.62322399 13.16927953 1.61068765 8.83206294 0 4 C-2.28705831 2.85647084 -3.59264762 2.89665561 -6.125 2.9375 C-7.40375 2.958125 -8.6825 2.97875 -10 3 C-10 2.34 -10 1.68 -10 1 C-6.78548731 -0.60725635 -3.56387464 -0.05748185 0 0 Z " fill="#56BEFB" transform="translate(360,193)"/>
<path d="M0 0 C2.16874252 0.50603992 3.99967627 0.99983813 6 2 C6.6328125 4.28515625 6.6328125 4.28515625 7.125 7.0625 C7.29257813 7.98160156 7.46015625 8.90070313 7.6328125 9.84765625 C7.75398437 10.55792969 7.87515625 11.26820313 8 12 C8.66 12 9.32 12 10 12 C12.21854707 16.62197306 13.38281159 19.76824163 13 25 C10.09399739 26.25664978 8.20395416 27 5 27 C1.57142857 19.71428571 1.57142857 19.71428571 2 15 C0.68 15 -0.64 15 -2 15 C-1.52269162 13.5410574 -1.04308958 12.08286504 -0.5625 10.625 C-0.29566406 9.81289062 -0.02882812 9.00078125 0.24609375 8.1640625 C1 6 1 6 2 4 C1.01 4 0.02 4 -1 4 C-0.67 2.68 -0.34 1.36 0 0 Z " fill="#5ABFF6" transform="translate(245,194)"/>
<path d="M0 0 C2.43325244 3.74016007 2.26302918 7.42698543 2.21118164 11.73095703 C2.2098674 12.50551743 2.20855316 13.28007782 2.2071991 14.07810974 C2.20071053 16.63813509 2.1802685 19.19786112 2.16015625 21.7578125 C2.15388141 23.54417599 2.14864279 25.33054339 2.14439392 27.11691284 C2.13108719 31.82477175 2.10666831 36.53250109 2.07904053 41.24029541 C2.03596037 48.75357108 2.00604887 56.26687783 1.9829998 63.78023911 C1.9728573 66.39351197 1.9557913 69.00667307 1.93800354 71.61990356 C1.89849181 79.4900509 1.98513847 87.17845569 3 95 C1 94 1 94 -0.1098175 90.96612549 C-1.18985155 86.80613197 -1.27473529 82.8197911 -1.24291992 78.54199219 C-1.24481827 77.72648895 -1.24671661 76.91098572 -1.24867249 76.07077026 C-1.25235413 73.3960383 -1.24171611 70.7215825 -1.23046875 68.046875 C-1.22927568 66.18076611 -1.22882406 64.31465662 -1.2290802 62.44854736 C-1.22752002 58.54834199 -1.21926363 54.64822902 -1.20581055 50.74804688 C-1.1887742 45.74548245 -1.18499783 40.74301896 -1.18575573 35.74042892 C-1.18548412 31.89205968 -1.18000508 28.04371255 -1.17275429 24.19535065 C-1.16957043 22.35013242 -1.16760087 20.50491168 -1.16686058 18.65969086 C-1.16469671 16.08656011 -1.15595277 13.5135373 -1.14526367 10.94042969 C-1.14571686 10.17675079 -1.14617004 9.4130719 -1.14663696 8.62625122 C-1.1275004 5.48184454 -1.00201875 3.00605626 0 0 Z " fill="#82CBF3" transform="translate(85,158)"/>
<path d="M0 0 C0.66 0 1.32 0 2 0 C2 0.66 2 1.32 2 2 C3.32 2.33 4.64 2.66 6 3 C6 4.32 6 5.64 6 7 C6.66 7 7.32 7 8 7 C8.0272415 8.41655793 8.04650467 9.83327045 8.0625 11.25 C8.07410156 12.03890625 8.08570313 12.8278125 8.09765625 13.640625 C8.00385306 15.90691002 7.63241063 17.8288895 7 20 C6.34 20 5.68 20 5 20 C5 21.65 5 23.3 5 25 C4.34 25 3.68 25 3 25 C3 24.34 3 23.68 3 23 C1.68 23.33 0.36 23.66 -1 24 C-1.625 22.1875 -1.625 22.1875 -2 20 C-1.01 18.515 -1.01 18.515 0 17 C0.36867303 11.4699046 -0.25441982 7.23674055 -2 2 C-1.34 1.34 -0.68 0.68 0 0 Z " fill="#51BEFB" transform="translate(288,191)"/>
<path d="M0 0 C4.33333333 0 8.66666667 0 13 0 C13.98871094 -0.04640625 14.97742188 -0.0928125 15.99609375 -0.140625 C17.13175781 -0.17671875 18.26742188 -0.2128125 19.4375 -0.25 C20.57058594 -0.29640625 21.70367187 -0.3428125 22.87109375 -0.390625 C26.60578231 0.07562825 27.68989729 1.11662856 30 4 C25.13103697 3.40380045 20.67209049 2.43023178 16 1 C16 1.66 16 2.32 16 3 C13.69 3.66 11.38 4.32 9 5 C9 4.01 9 3.02 9 2 C6.36 2 3.72 2 1 2 C1.33 12.23 1.66 22.46 2 33 C3.98 33 5.96 33 8 33 C8.33 25.74 8.66 18.48 9 11 C9.66 10.67 10.32 10.34 11 10 C11 18.25 11 26.5 11 35 C7.37 35 3.74 35 0 35 C0 23.45 0 11.9 0 0 Z " fill="#8BCAE9" transform="translate(389,186)"/>
<path d="M0 0 C0.99 0.495 0.99 0.495 2 1 C2.01030746 1.76785828 2.02061493 2.53571655 2.03123474 3.32684326 C2.12924499 10.56601574 2.23176442 17.8051037 2.33933926 25.04413986 C2.39448462 28.76572513 2.44789102 32.48731837 2.49731445 36.20898438 C2.54508196 39.80112671 2.59742891 43.39317589 2.65294075 46.9852066 C2.67330828 48.35509163 2.69203046 49.72500214 2.70907402 51.09493256 C2.73324211 53.0148457 2.76382225 54.93467488 2.79467773 56.85449219 C2.81022202 57.94703308 2.8257663 59.03957397 2.84178162 60.16522217 C2.97939841 62.63088408 3.15770778 64.68393109 4 67 C5.9837767 68.28436734 5.9837767 68.28436734 8 69 C5.43795122 68.65377719 3.49410606 68.34469801 1.35331726 66.85124207 C-0.63216236 64.13524671 -0.35995055 62.03147776 -0.34057617 58.69262695 C-0.34034958 57.39150467 -0.34012299 56.09038239 -0.33988953 54.74983215 C-0.32456952 53.3293117 -0.30892153 51.90879474 -0.29296875 50.48828125 C-0.28737276 49.03525734 -0.28310267 47.58222776 -0.28010559 46.12919617 C-0.26865695 42.30679671 -0.23918999 38.4847398 -0.20599365 34.66247559 C-0.17529295 30.76135899 -0.16160028 26.86018698 -0.14648438 22.95898438 C-0.11431998 15.3058335 -0.06312383 7.65296477 0 0 Z " fill="#82C4F4" transform="translate(94,182)"/>
<path d="M0 0 C4.29 0 8.58 0 13 0 C13 15.51 13 31.02 13 47 C11.35 47 9.7 47 8 47 C7.67 46.34 7.34 45.68 7 45 C8.65 45 10.3 45 12 45 C11.83734146 44.42131165 11.67468292 43.84262329 11.50709534 43.24639893 C10.69174038 39.6344302 10.87888419 35.98110114 10.90234375 32.296875 C10.9037587 31.45908508 10.90517365 30.62129517 10.90663147 29.75811768 C10.91221803 27.08870843 10.92476806 24.4193838 10.9375 21.75 C10.94251674 19.93750121 10.94707934 18.12500111 10.95117188 16.3125 C10.96218306 11.87496752 10.97943845 7.43749809 11 3 C7.7 2.34 4.4 1.68 1 1 C1.268125 1.886875 1.53625 2.77375 1.8125 3.6875 C2 7 2 7 -0.3125 9.875 C-3 12 -3 12 -5 12 C-4.54738642 10.56068883 -4.08767021 9.12361001 -3.625 7.6875 C-3.24214844 6.48673828 -3.24214844 6.48673828 -2.8515625 5.26171875 C-2 3 -2 3 0 0 Z " fill="#88CDEF" transform="translate(489,174)"/>
<path d="M0 0 C3.32920362 3.32920362 2.98453336 7.22563122 3.07556152 11.78314209 C3.05784851 13.21716053 3.03426847 14.65111451 3.00585938 16.08496094 C2.99464554 16.87266373 2.9834317 17.66036652 2.97187805 18.47193909 C2.94697509 20.17270275 2.919589 21.87343152 2.88996887 23.57411957 C2.84324413 26.26349147 2.80326237 28.95289004 2.76501465 31.64239502 C2.68270134 37.3450298 2.59186164 43.04751215 2.5 48.75 C2.39360691 55.37231077 2.29068533 61.99464128 2.19624329 68.61713409 C2.15664064 71.27070027 2.11084546 73.92411425 2.06481934 76.57757568 C2.04096168 78.19591848 2.01738654 79.81426548 1.99414062 81.43261719 C1.97962357 82.17341019 1.96510651 82.91420319 1.95014954 83.67744446 C1.8345156 87.46369085 1.8345156 87.46369085 3 91 C2.00390625 93.3828125 2.00390625 93.3828125 0.5625 96.125 C-0.14712891 97.49011719 -0.14712891 97.49011719 -0.87109375 98.8828125 C-1.24363281 99.58148438 -1.61617187 100.28015625 -2 101 C-2.33 101 -2.66 101 -3 101 C-3 98.69 -3 96.38 -3 94 C-2.34 94 -1.68 94 -1 94 C-0.25291979 88.01542563 0.1419441 82.20233365 0.11352539 76.17553711 C0.11367142 75.34516937 0.11381744 74.51480164 0.1139679 73.65927124 C0.11327815 70.948601 0.10553028 68.2380018 0.09765625 65.52734375 C0.09578873 63.63448626 0.0943664 61.74162829 0.09336853 59.84877014 C0.08956966 54.89224895 0.07976211 49.93575755 0.06866455 44.97924805 C0.05839361 39.91129967 0.05385878 34.84334643 0.04882812 29.77539062 C0.03813724 19.8502474 0.02109276 9.92512619 0 0 Z " fill="#64BDEE" transform="translate(200,155)"/>
<path d="M0 0 C1 1 1 1 1.1875 4.4375 C1 8 1 8 -1 10 C-5.33643601 10.31537716 -7.32653229 10.44897847 -11 8 C-11.4375 5.0625 -11.4375 5.0625 -11 2 C-7.81090144 -1.95448222 -4.61226755 -1.04428699 0 0 Z " fill="#84C3E5" transform="translate(384,173)"/>
<path d="M0 0 C4.29 0 8.58 0 13 0 C13.33 1.32 13.66 2.64 14 4 C13.34 4 12.68 4 12 4 C11.67 3.34 11.34 2.68 11 2 C7.7 1.67 4.4 1.34 1 1 C1 15.85 1 30.7 1 46 C3.64 46 6.28 46 9 46 C9 36.76 9 27.52 9 18 C10.32 18.33 11.64 18.66 13 19 C12.67 20.32 12.34 21.64 12 23 C11.67 23 11.34 23 11 23 C10.67 30.92 10.34 38.84 10 47 C6.7 47 3.4 47 0 47 C0 31.49 0 15.98 0 0 Z " fill="#7ABADC" transform="translate(451,174)"/>
<path d="M0 0 C2.64590014 -0.02684679 5.29153096 -0.04676357 7.9375 -0.0625 C8.69224609 -0.07087891 9.44699219 -0.07925781 10.22460938 -0.08789062 C12.14994313 -0.09652441 14.07535581 -0.05224333 16 0 C17.96822886 1.96822886 17.66248381 5.34808709 18 8 C20.41645782 8.16687448 20.41645782 8.16687448 23 8 C25.50847518 5.86132495 25.50847518 5.86132495 26 1 C37.22 1 48.44 1 60 1 C60 1.33 60 1.66 60 2 C49.11 2 38.22 2 27 2 C26.67 4.31 26.34 6.62 26 9 C24 11 24 11 22.125 11.08203125 C21.073125 10.94861328 21.073125 10.94861328 20 10.8125 C19.29875 10.73644531 18.5975 10.66039062 17.875 10.58203125 C16 10 16 10 14 7 C13.67 5.35 13.34 3.7 13 2 C6.565 2.495 6.565 2.495 0 3 C0 2.01 0 1.02 0 0 Z " fill="#B8DDEF" transform="translate(100,153)"/>
<path d="M0 0 C3.3 0 6.6 0 10 0 C10 3.3 10 6.6 10 10 C11.299375 9.979375 12.59875 9.95875 13.9375 9.9375 C15.29165633 9.91600546 16.64756083 9.92851801 18 10 C19 11 19 11 19.125 14.5 C19 18 19 18 18 19 C15.36 19 12.72 19 10 19 C10 24.61 10 30.22 10 36 C9.34 36 8.68 36 8 36 C7.94619422 33.20807795 7.90642331 30.4171859 7.875 27.625 C7.85824219 26.8309375 7.84148437 26.036875 7.82421875 25.21875 C7.80664527 23.14507985 7.89664832 21.07116759 8 19 C10 17 10 17 13.625 16.875 C15.295625 16.936875 15.295625 16.936875 17 17 C17 15.68 17 14.36 17 13 C15.576875 13.061875 15.576875 13.061875 14.125 13.125 C11 13 11 13 9 11 C8.5859375 8.6171875 8.5859375 8.6171875 8.375 5.875 C8.30023438 4.96492187 8.22546875 4.05484375 8.1484375 3.1171875 C8.09945313 2.41851562 8.05046875 1.71984375 8 1 C5.36 1 2.72 1 0 1 C0 0.67 0 0.34 0 0 Z " fill="#78C0E7" transform="translate(429,176)"/>
<path d="M0 0 C3.12826838 0.29100171 4.37427733 1.19380207 6.6875 3.25 C6.08544099 5.95926555 5.34137116 7.73834582 3.125 9.47265625 C-2.21307259 12.47532208 -7.27130395 13.12597343 -13.3125 12.25 C-16.9375 10.75 -16.9375 10.75 -19.3125 9.25 C-14.75701306 7.81318383 -10.22435143 8.27341102 -5.50390625 8.41015625 C-2.26062467 8.24739671 -0.15099696 7.81091575 2.6875 6.25 C3.0175 5.26 3.3475 4.27 3.6875 3.25 C3.14609375 3.41371094 2.6046875 3.57742187 2.046875 3.74609375 C-0.71472593 4.33590587 -3.24068139 4.34609308 -6.0625 4.3125 C-7.04734375 4.30347656 -8.0321875 4.29445312 -9.046875 4.28515625 C-9.79453125 4.27355469 -10.5421875 4.26195312 -11.3125 4.25 C-11.3125 3.92 -11.3125 3.59 -11.3125 3.25 C-10.74660156 3.11722656 -10.18070313 2.98445312 -9.59765625 2.84765625 C-8.49744141 2.58275391 -8.49744141 2.58275391 -7.375 2.3125 C-6.64410156 2.13847656 -5.91320312 1.96445313 -5.16015625 1.78515625 C-2.8317694 1.1107609 -2.52726762 0.27321812 0 0 Z " fill="#7FC8EB" transform="translate(531.3125,209.75)"/>
<path d="M0 0 C1.9375 0.5625 1.9375 0.5625 4 2 C4.625 5.375 4.625 5.375 5 9 C5.37125 9.680625 5.7425 10.36125 6.125 11.0625 C7.40376067 13.89404148 6.67154491 16.04520239 6 19 C3.6875 18.9375 3.6875 18.9375 1 18 C-2.04601662 12.95831732 -2.91809356 7.85433685 -2 2 C-1.34 1.34 -0.68 0.68 0 0 Z " fill="#52BEFB" transform="translate(341,200)"/>
<path d="M0 0 C1.9955516 3.99110319 2.19546065 5.69986566 2 10 C0.35 10.33 -1.3 10.66 -3 11 C-3 12.65 -3 14.3 -3 16 C-1.35 16 0.3 16 2 16 C2.33 23.59 2.66 31.18 3 39 C3.66 39 4.32 39 5 39 C5.33 40.32 5.66 41.64 6 43 C4.125 42.375 4.125 42.375 2 41 C-0.22141651 36.00181285 -0.24287629 31.47477003 -0.125 26.125 C-0.11597656 25.34125 -0.10695313 24.5575 -0.09765625 23.75 C-0.07428063 21.83319945 -0.03841653 19.91655809 0 18 C-1.65 17.67 -3.3 17.34 -5 17 C-5 14.69 -5 12.38 -5 10 C-3.35 9.67 -1.7 9.34 0 9 C0 6.03 0 3.06 0 0 Z " fill="#8CD2EB" transform="translate(428,177)"/>
<path d="M0 0 C3 0.375 3 0.375 4.8125 1.75 C7.20263961 5.02071736 7.08688392 7.37833956 7 11.375 C7.95261719 11.35179687 8.90523437 11.32859375 9.88671875 11.3046875 C11.14097656 11.28664062 12.39523438 11.26859375 13.6875 11.25 C15.54955078 11.21519531 15.54955078 11.21519531 17.44921875 11.1796875 C20.81237857 11.36467979 22.9985587 11.91732105 26 13.375 C23.09330538 14.22805168 20.68951127 14.44789715 17.671875 14.25390625 C16.87265625 14.20556641 16.0734375 14.15722656 15.25 14.10742188 C14.425 14.05134766 13.6 13.99527344 12.75 13.9375 C11.90953125 13.88529297 11.0690625 13.83308594 10.203125 13.77929688 C8.1350648 13.65004311 6.0674778 13.51325726 4 13.375 C4 10.075 4 6.775 4 3.375 C1.03 4.035 -1.94 4.695 -5 5.375 C-5.33 4.715 -5.66 4.055 -6 3.375 C-4.09456498 0.83441997 -3.22246552 0.40280819 0 0 Z " fill="#8CCCF0" transform="translate(166,132.625)"/>
<path d="M0 0 C3.96 0 7.92 0 12 0 C12.99 2.97 13.98 5.94 15 9 C13.68 9 12.36 9 11 9 C11 6.36 11 3.72 11 1 C8.69 1 6.38 1 4 1 C3.731875 1.969375 3.46375 2.93875 3.1875 3.9375 C2.795625 4.948125 2.40375 5.95875 2 7 C1.01 7.33 0.02 7.66 -1 8 C-0.896875 8.928125 -0.79375 9.85625 -0.6875 10.8125 C-0.8421875 12.3903125 -0.8421875 12.3903125 -1 14 C-3.5 15.875 -3.5 15.875 -6 17 C-4.33846988 11.14340094 -2.52958084 5.5409866 0 0 Z " fill="#74C1EB" transform="translate(232,174)"/>
<path d="M0 0 C1.875 1.5625 1.875 1.5625 3 4 C3 6.31 3 8.62 3 11 C13.89 11 24.78 11 36 11 C36 11.33 36 11.66 36 12 C24.78 12 13.56 12 2 12 C1.34 9.36 0.68 6.72 0 4 C-2.31 3.67 -4.62 3.34 -7 3 C-7.66 5.64 -8.32 8.28 -9 11 C-9.33 11 -9.66 11 -10 11 C-10.48541424 3.59743291 -10.48541424 3.59743291 -8.375 1 C-5.31305259 -0.28924102 -3.28949317 -0.48992451 0 0 Z " fill="#98D4F4" transform="translate(124,133)"/>
<path d="M0 0 C2.06309376 0.11478413 4.12548354 0.24226198 6.1875 0.375 C7.33605469 0.44460937 8.48460937 0.51421875 9.66796875 0.5859375 C13.03454814 1.0042932 16.50575584 1.50575584 19 4 C19.15354338 6.80511953 19.23165776 9.56863671 19.25 12.375 C19.270625 13.15617188 19.29125 13.93734375 19.3125 14.7421875 C19.35217769 20.53513069 19.35217769 20.53513069 17.68920898 22.73022461 C14.92139807 24.81078315 12.18773878 24.28039648 8.8125 24.1875 C6.90404297 24.14689453 6.90404297 24.14689453 4.95703125 24.10546875 C3.98121094 24.07066406 3.00539062 24.03585938 2 24 C2 23.67 2 23.34 2 23 C2.75925781 22.95101562 3.51851562 22.90203125 4.30078125 22.8515625 C5.29464844 22.77679688 6.28851563 22.70203125 7.3125 22.625 C8.29863281 22.55539063 9.28476563 22.48578125 10.30078125 22.4140625 C13.21528433 22.16134528 13.21528433 22.16134528 16 20 C16.38621226 17.21101681 16.60231924 14.67080331 16.6875 11.875 C16.790625 9.27625 16.89375 6.6775 17 4 C11.39 3.34 5.78 2.68 0 2 C0 1.34 0 0.68 0 0 Z " fill="#8DCFF2" transform="translate(153,204)"/>
<path d="M0 0 C0.66 0 1.32 0 2 0 C3.20270964 2.40541929 3.20316663 4.10366591 3.31640625 6.7890625 C3.35830078 7.73007813 3.40019531 8.67109375 3.44335938 9.640625 C3.48267578 10.62546875 3.52199219 11.6103125 3.5625 12.625 C3.60568359 13.61757812 3.64886719 14.61015625 3.69335938 15.6328125 C3.79961069 18.08839838 3.90164964 20.54408703 4 23 C6.31 23.33 8.62 23.66 11 24 C11 16.41 11 8.82 11 1 C11.33 1 11.66 1 12 1 C12 8.92 12 16.84 12 25 C8.37 25 4.74 25 1 25 C0.67 16.75 0.34 8.5 0 0 Z " fill="#A2D6EF" transform="translate(411,196)"/>
<path d="M0 0 C0.66 0.66 1.32 1.32 2 2 C1.77309495 6.99191108 0.09309173 10.13363534 -3 14 C-8.63734677 18.08707641 -14.21279589 18.51930565 -21 18 C-24.0625 17 -24.0625 17 -26 16 C-22.73086376 14.96884721 -20.13958652 15.0361016 -16.75 15.4375 C-15.41195313 15.59025391 -15.41195313 15.59025391 -14.046875 15.74609375 C-13.37140625 15.82988281 -12.6959375 15.91367188 -12 16 C-12 15.34 -12 14.68 -12 14 C-11.195625 13.87625 -10.39125 13.7525 -9.5625 13.625 C-8.716875 13.41875 -7.87125 13.2125 -7 13 C-6.67 12.34 -6.34 11.68 -6 11 C-5.34 11 -4.68 11 -4 11 C-4 10.01 -4 9.02 -4 8 C-3.34 7.67 -2.68 7.34 -2 7 C-1.26924352 4.6859378 -0.59861742 2.35171131 0 0 Z " fill="#94D1F0" transform="translate(371,204)"/>
<path d="M0 0 C4.12295947 3.58518214 6.54105288 7.28096874 7.11328125 12.796875 C7.12340185 14.69954829 7.01056178 16.60213512 6.875 18.5 C4.41198577 16.03698577 4.10733479 14.22639964 3.25 10.875 C2.98960937 9.87210938 2.72921875 8.86921875 2.4609375 7.8359375 C2.26757812 7.06507813 2.07421875 6.29421875 1.875 5.5 C1.215 5.5 0.555 5.5 -0.125 5.5 C-0.125 4.84 -0.125 4.18 -0.125 3.5 C-1.115 3.5 -2.105 3.5 -3.125 3.5 C-3.56457031 3.01917969 -4.00414062 2.53835937 -4.45703125 2.04296875 C-6.80497223 -0.12901412 -8.66543507 -0.00237853 -11.8125 -0.1875 C-12.80636719 -0.25324219 -13.80023438 -0.31898438 -14.82421875 -0.38671875 C-15.58347656 -0.42410156 -16.34273438 -0.46148437 -17.125 -0.5 C-17.125 0.16 -17.125 0.82 -17.125 1.5 C-19.105 1.83 -21.085 2.16 -23.125 2.5 C-18.91220549 -3.81919176 -6.44767467 -3.19568155 0 0 Z " fill="#84C6E9" transform="translate(366.125,187.5)"/>
<path d="M0 0 C1.32 0.66 2.64 1.32 4 2 C2 3 0 4 -2 5 C-5.97568816 10.72499095 -5.70836952 17.22210548 -6 24 C-5.34 24 -4.68 24 -4 24 C-3.34 25.65 -2.68 27.3 -2 29 C-2.99 29 -3.98 29 -5 29 C-8.45291817 22.52577843 -9.20754024 16.08290194 -7.49609375 8.87890625 C-5.93676117 4.73553682 -3.61549011 2.44289872 0 0 Z " fill="#79C3EB" transform="translate(513,187)"/>
<path d="M0 0 C1.32 0 2.64 0 4 0 C4 0.99 4 1.98 4 3 C4.99 3.33 5.98 3.66 7 4 C7.33 5.65 7.66 7.3 8 9 C7.01 9 6.02 9 5 9 C3.66018514 9.3062434 2.32488113 9.63451555 1 10 C1 10.66 1 11.32 1 12 C0.34 11.67 -0.32 11.34 -1 11 C-3.204364 10.77049681 -5.41392173 10.58924067 -7.625 10.4375 C-8.81351563 10.35371094 -10.00203125 10.26992187 -11.2265625 10.18359375 C-12.14179687 10.12300781 -13.05703125 10.06242188 -14 10 C-13.67 9.34 -13.34 8.68 -13 8 C-8.71 8.33 -4.42 8.66 0 9 C-0.33 7.02 -0.66 5.04 -1 3 C-0.67 2.01 -0.34 1.02 0 0 Z " fill="#6BC4F8" transform="translate(529,190)"/>
<path d="M0 0 C1.28970703 0.02320313 1.28970703 0.02320313 2.60546875 0.046875 C4.8125 0.25 4.8125 0.25 6.8125 1.25 C6.4825 1.91 6.1525 2.57 5.8125 3.25 C1.8525 3.25 -2.1075 3.25 -6.1875 3.25 C-7.41267308 8.91642551 -7.27978867 14.48708518 -7.1875 20.25 C-8.1775 20.25 -9.1675 20.25 -10.1875 20.25 C-10.32237595 17.47754986 -10.42150807 14.71162912 -10.5 11.9375 C-10.54189453 11.15181641 -10.58378906 10.36613281 -10.62695312 9.55664062 C-10.673807 7.35450853 -10.64692337 5.40503009 -10.1875 3.25 C-7.00160143 0.30786235 -4.24581233 -0.12846633 0 0 Z " fill="#7CCCF0" transform="translate(125.1875,204.75)"/>
<path d="M0 0 C1.32 0 2.64 0 4 0 C4 0.66 4 1.32 4 2 C5.81293089 1.85962479 7.6253443 1.71255111 9.4375 1.5625 C10.44683594 1.48128906 11.45617187 1.40007812 12.49609375 1.31640625 C14.93640779 1.26788532 14.93640779 1.26788532 16 0 C17.66617115 -0.04063832 19.33388095 -0.042721 21 0 C18.10031259 3.09966585 16.24136982 4.86194461 11.84375 5.1328125 C11.0703125 5.13023437 10.296875 5.12765625 9.5 5.125 C8.7265625 5.12757813 7.953125 5.13015625 7.15625 5.1328125 C5 5 5 5 2 4 C1.67 8.29 1.34 12.58 1 17 C0.67 17 0.34 17 0 17 C0 11.39 0 5.78 0 0 Z " fill="#8DCFF0" transform="translate(272,217)"/>
<path d="M0 0 C2.16874252 0.50603992 3.99967627 0.99983813 6 2 C7.31745857 5.87918356 8 8.88375865 8 13 C7.01 13.33 6.02 13.66 5 14 C4.54625 13.525625 4.0925 13.05125 3.625 12.5625 C2.06741796 10.90972192 2.06741796 10.90972192 0 10 C0.50603992 7.83125748 0.99983813 6.00032373 2 4 C1.01 4 0.02 4 -1 4 C-0.67 2.68 -0.34 1.36 0 0 Z " fill="#4FBFFC" transform="translate(245,194)"/>
<path d="M0 0 C2.12006071 3.18009106 3.50262241 6.29740612 5 9.8125 C5.515625 11.01519531 6.03125 12.21789062 6.5625 13.45703125 C10 21.92934783 10 21.92934783 10 27 C7.36 27 4.72 27 2 27 C2.66 26.34 3.32 25.68 4 25 C4.99 25 5.98 25 7 25 C6.690625 23.96875 6.38125 22.9375 6.0625 21.875 C5.12497188 18.61027443 4.49227298 15.36386538 4 12 C3.34 12 2.68 12 2 12 C-0.60018816 8.09971775 -0.15085514 4.52565431 0 0 Z " fill="#85C8EB" transform="translate(251,194)"/>
<path d="M0 0 C3.96 0 7.92 0 12 0 C14.75717489 4.59529149 15.9689624 8.68600621 15 14 C13.8789926 16.56715548 12.56453122 18.65320316 11 21 C8.525 20.01 8.525 20.01 6 19 C9 17 9 17 11 16 C11.46910332 14.01082811 11.46910332 14.01082811 11.625 11.6875 C11.69976562 10.90761719 11.77453125 10.12773437 11.8515625 9.32421875 C11.985959 7.21985253 12 5.10865351 12 3 C10.56359829 2.80426392 9.12580496 2.61872184 7.6875 2.4375 C6.88699219 2.33308594 6.08648437 2.22867188 5.26171875 2.12109375 C2.83182884 1.85244822 2.83182884 1.85244822 0 3 C0 2.01 0 1.02 0 0 Z " fill="#89C9EC" transform="translate(274,194)"/>
<path d="M0 0 C1.91635217 -0.05423638 3.83314925 -0.09289963 5.75 -0.125 C7.35101563 -0.15980469 7.35101563 -0.15980469 8.984375 -0.1953125 C11.96139222 -0.0025005 13.55981848 0.32802377 16 2 C17.25 4.625 17.25 4.625 18 7 C17.01 7 16.02 7 15 7 C15 6.34 15 5.68 15 5 C14.45859375 5.49113281 13.9171875 5.98226562 13.359375 6.48828125 C10.42758717 8.3667612 8.69700309 8.31060725 5.25 8.1875 C4.26515625 8.16042969 3.2803125 8.13335937 2.265625 8.10546875 C1.51796875 8.07066406 0.7703125 8.03585938 0 8 C0 7.67 0 7.34 0 7 C3.02734375 6.75585938 3.02734375 6.75585938 6.0546875 6.51171875 C8.39519216 6.12606964 8.39519216 6.12606964 10 3 C8.906875 2.87625 7.81375 2.7525 6.6875 2.625 C3 2 3 2 0 0 Z " fill="#6CC1F1" transform="translate(275,186)"/>
<path d="M0 0 C4.42117715 1.35091524 6.443343 3.1650145 9 7 C9.96226238 9.96749301 10.10820342 12.64216744 10.0625 15.75 C10.05347656 16.54921875 10.04445313 17.3484375 10.03515625 18.171875 C10.02355469 18.77515625 10.01195312 19.3784375 10 20 C8.39773045 20.22245393 6.79303233 20.42746669 5.1875 20.625 C3.84751953 20.79902344 3.84751953 20.79902344 2.48046875 20.9765625 C0 21 0 21 -3 19 C0.3 18.67 3.6 18.34 7 18 C7.061875 16.576875 7.12375 15.15375 7.1875 13.6875 C7.22230469 12.88699219 7.25710938 12.08648437 7.29296875 11.26171875 C6.93256507 8.47940234 5.99343154 7.86786105 4 6 C4 5.01 4 4.02 4 3 C3.01 3 2.02 3 1 3 C0.67 2.01 0.34 1.02 0 0 Z " fill="#86C6E9" transform="translate(529,187)"/>
<path d="M0 0 C0 8.58 0 17.16 0 26 C-0.33 26 -0.66 26 -1 26 C-1.33 18.74 -1.66 11.48 -2 4 C-4.475 9.94 -4.475 9.94 -7 16 C-7.33 16 -7.66 16 -8 16 C-7.96603421 6.30276613 -7.96603421 6.30276613 -5.6328125 3.15625 C-1.79760174 0 -1.79760174 0 0 0 Z " fill="#B1E2F6" transform="translate(492,194)"/>
<path d="M0 0 C2 2 2 2 2.125 5.125 C2.08375 6.07375 2.0425 7.0225 2 8 C0.58376784 8.05447047 -0.83308191 8.09300508 -2.25 8.125 C-3.03890625 8.14820313 -3.8278125 8.17140625 -4.640625 8.1953125 C-7.20731941 7.9828378 -8.7916067 7.28654105 -11 6 C-9.125 4.9375 -9.125 4.9375 -7 4 C-6.34 4.33 -5.68 4.66 -5 5 C-5 4.34 -5 3.68 -5 3 C-4.34 3 -3.68 3 -3 3 C-2.67 2.34 -2.34 1.68 -2 1 C-1.34 0.67 -0.68 0.34 0 0 Z " fill="#52BEFB" transform="translate(535,197)"/>
<path d="M0 0 C2.97 0.33 5.94 0.66 9 1 C9 1.33 9 1.66 9 2 C7.906875 2.103125 6.81375 2.20625 5.6875 2.3125 C1.5307362 3.03092943 1.5307362 3.03092943 -1 6 C-1.36270484 8.74243563 -1.36270484 8.74243563 -1.1875 11.6875 C-1.16042969 12.68136719 -1.13335937 13.67523438 -1.10546875 14.69921875 C-1.05326172 15.83810547 -1.05326172 15.83810547 -1 17 C-0.01 17.33 0.98 17.66 2 18 C0.68 18.33 -0.64 18.66 -2 19 C-5.59578425 11.66460012 -5.59578425 11.66460012 -4 7 C-3.36562656 5.3207762 -2.70710678 3.64991582 -2 2 C-1.34 2 -0.68 2 0 2 C0 1.34 0 0.68 0 0 Z " fill="#76C4ED" transform="translate(312,193)"/>
<path d="M0 0 C0.66 0.33 1.32 0.66 2 1 C2.05429959 2.74965358 2.09292823 4.49979787 2.125 6.25 C2.14820313 7.22453125 2.17140625 8.1990625 2.1953125 9.203125 C1.99645953 12.05069951 1.55438946 13.63037132 0 16 C-3.06533164 17.53266582 -6.26754272 17.10276471 -9.625 17.0625 C-10.33140625 17.05798828 -11.0378125 17.05347656 -11.765625 17.04882812 C-13.51045275 17.03703875 -15.255237 17.01910324 -17 17 C-17 16.67 -17 16.34 -17 16 C-15.62714844 15.94392578 -15.62714844 15.94392578 -14.2265625 15.88671875 C-13.03804687 15.82097656 -11.84953125 15.75523437 -10.625 15.6875 C-9.44164062 15.62949219 -8.25828125 15.57148438 -7.0390625 15.51171875 C-6.03617188 15.34285156 -5.03328125 15.17398438 -4 15 C-3.34 14.01 -2.68 13.02 -2 12 C-1.34 12 -0.68 12 0 12 C0 8.04 0 4.08 0 0 Z " fill="#94D5F2" transform="translate(153,228)"/>
<path d="M0 0 C0.29296875 6.0546875 0.29296875 6.0546875 0 8 C-3.20380017 10.13586678 -4.01939967 10.23132175 -7.6875 10.125 C-8.89986328 10.09792969 -8.89986328 10.09792969 -10.13671875 10.0703125 C-11.05904297 10.03550781 -11.05904297 10.03550781 -12 10 C-12 9.34 -12 8.68 -12 8 C-9.36 7.67 -6.72 7.34 -4 7 C-3.67 5.35 -3.34 3.7 -3 2 C-4.32 1.67 -5.64 1.34 -7 1 C-4.53721199 -0.231394 -2.7204945 -0.07159196 0 0 Z " fill="#82C8EB" transform="translate(448,212)"/>
<path d="M0 0 C0.33 0 0.66 0 1 0 C1 1.98 1 3.96 1 6 C3.91517292 4.92598892 5.77810176 4.22189824 8 2 C8 3.32 8 4.64 8 6 C9.32 6 10.64 6 12 6 C11.67 6.99 11.34 7.98 11 9 C4.375 10.125 4.375 10.125 1 9 C-0.4783226 6.04335481 -0.06032783 3.25770263 0 0 Z " fill="#70C2F0" transform="translate(160,154)"/>
<path d="M0 0 C12.21 0 24.42 0 37 0 C37 0.33 37 0.66 37 1 C25.78 1 14.56 1 3 1 C3 2.65 3 4.3 3 6 C2.01 6.495 2.01 6.495 1 7 C0.67 4.69 0.34 2.38 0 0 Z " fill="#62B5E2" transform="translate(123,153)"/>
<path d="M0 0 C12.21 0 24.42 0 37 0 C36.67 2.64 36.34 5.28 36 8 C35.67 8 35.34 8 35 8 C34.505 5.03 34.505 5.03 34 2 C22.78 1.67 11.56 1.34 0 1 C0 0.67 0 0.34 0 0 Z " fill="#4FB8F0" transform="translate(126,152)"/>
<path d="M0 0 C1.0625 1.875 1.0625 1.875 2 4 C1.67 4.66 1.34 5.32 1 6 C0.93049459 7.54023996 0.91547643 9.08334988 0.9375 10.625 C0.94652344 11.44226563 0.95554688 12.25953125 0.96484375 13.1015625 C0.97644531 13.72804687 0.98804688 14.35453125 1 15 C-0.875 16.0625 -0.875 16.0625 -3 17 C-3.66 16.67 -4.32 16.34 -5 16 C-3.71291613 10.45563871 -2.08135307 5.29798964 0 0 Z " fill="#6AC1F1" transform="translate(223,195)"/>
<path d="M0 0 C0 1.65 0 3.3 0 5 C-5.625 6.125 -5.625 6.125 -9 5 C-9 3.68 -9 2.36 -9 1 C-6.04335481 -0.4783226 -3.25770263 -0.06032783 0 0 Z " fill="#5ABCF3" transform="translate(383,175)"/>
<path d="M0 0 C5.61 0 11.22 0 17 0 C17.33 1.98 17.66 3.96 18 6 C17.47921875 5.51917969 16.9584375 5.03835937 16.421875 4.54296875 C13.29094187 2.54826135 10.93631779 2.49681589 7.25 2.3125 C6.07953125 2.24675781 4.9090625 2.18101562 3.703125 2.11328125 C2.81109375 2.07589844 1.9190625 2.03851563 1 2 C0.67 3.32 0.34 4.64 0 6 C0 4.02 0 2.04 0 0 Z " fill="#9BD1EE" transform="translate(172,153)"/>
<path d="M0 0 C0.33 0 0.66 0 1 0 C1 2.31 1 4.62 1 7 C-9.89 7.495 -9.89 7.495 -21 8 C-15.93528373 5.46764186 -12.96162025 4.87050179 -7.375 4.9375 C-6.31539062 4.94426758 -6.31539062 4.94426758 -5.234375 4.95117188 C-3.48954725 4.96296125 -1.744763 4.98089676 0 5 C0 3.35 0 1.7 0 0 Z " fill="#82C7F0" transform="translate(115,139)"/>
<path d="M0 0 C1.48168945 1.11254883 1.48168945 1.11254883 3 3 C3.34057617 5.8190918 3.34057617 5.8190918 3.29296875 9.19921875 C3.28330078 10.40771484 3.27363281 11.61621094 3.26367188 12.86132812 C3.23853516 14.12396484 3.21339844 15.38660156 3.1875 16.6875 C3.17396484 17.96173828 3.16042969 19.23597656 3.14648438 20.54882812 C3.11108199 23.69964057 3.0616979 26.84961045 3 30 C0.69 30 -1.62 30 -4 30 C-4 29.67 -4 29.34 -4 29 C-2.02 29 -0.04 29 2 29 C1.8594438 25.66642262 1.71158198 22.33320611 1.5625 19 C1.52318359 18.06542969 1.48386719 17.13085938 1.44335938 16.16796875 C1.19609347 10.72811877 0.75680832 5.39305423 0 0 Z " fill="#6EBEE9" transform="translate(419,190)"/>
<path d="M0 0 C3.3 0 6.6 0 10 0 C11.03590199 5.05002222 11.10251672 9.87416389 11 15 C10.01 15.495 10.01 15.495 9 16 C8.96261719 15.31292969 8.92523438 14.62585938 8.88671875 13.91796875 C8.82097656 13.01691406 8.75523437 12.11585938 8.6875 11.1875 C8.62949219 10.29417969 8.57148438 9.40085938 8.51171875 8.48046875 C7.92877555 5.65475171 7.10016288 4.87494434 5 3 C5 2.34 5 1.68 5 1 C3.35 1 1.7 1 0 1 C0 0.67 0 0.34 0 0 Z " fill="#67BBEA" transform="translate(316,193)"/>
<path d="M0 0 C5.28 0 10.56 0 16 0 C16.66 1.32 17.32 2.64 18 4 C17.01 3.67 16.02 3.34 15 3 C13.02265434 2.90544339 11.04209917 2.87010606 9.0625 2.875 C8.02222656 2.87242187 6.98195312 2.86984375 5.91015625 2.8671875 C3.42334029 2.98067977 1.36907593 3.28071429 -1 4 C-0.67 2.68 -0.34 1.36 0 0 Z " fill="#79C2E7" transform="translate(135,188)"/>
<path d="M0 0 C-0.1875 1.875 -0.1875 1.875 -1 4 C-3.89105597 5.68644932 -5.48102512 6.06919665 -8.8125 5.625 C-9.534375 5.41875 -10.25625 5.2125 -11 5 C-11 4.01 -11 3.02 -11 2 C-7.12315913 0.80712589 -4.08378077 0 0 0 Z " fill="#53BDFB" transform="translate(535,213)"/>
<path d="M0 0 C3 1 3 1 5.1875 4.3125 C7.76989703 9.70313106 7.35071157 15.1548072 7 21 C4.59798496 16.80120206 4.84135851 13.75924459 5 9 C4.34 9 3.68 9 3 9 C2.01 6.03 1.02 3.06 0 0 Z " fill="#88CDEC" transform="translate(291,189)"/>
<path d="M0 0 C-0.33 0.66 -0.66 1.32 -1 2 C-0.01 2.99 0.98 3.98 2 5 C-0.87436732 6.43718366 -3.83466746 6.54780964 -7 7 C-7.99 7.495 -7.99 7.495 -9 8 C-8.42415568 5.61435923 -7.77772405 3.33317216 -7 1 C-4.53721199 -0.231394 -2.7204945 -0.07159196 0 0 Z " fill="#56BAF4" transform="translate(409,190)"/>
<path d="M0 0 C8.33333333 0 16.66666667 0 25 0 C25.33 0.99 25.66 1.98 26 3 C25.443125 2.90460938 24.88625 2.80921875 24.3125 2.7109375 C18.6110271 1.88268299 14.50175924 2.29945623 9 4 C9 3.01 9 2.02 9 1 C6.03 1 3.06 1 0 1 C0 0.67 0 0.34 0 0 Z " fill="#A1D9EE" transform="translate(300,186)"/>
<path d="M0 0 C1.32 0.66 2.64 1.32 4 2 C3.67 4.64 3.34 7.28 3 10 C1.35 9.67 -0.3 9.34 -2 9 C-2 8.01 -2 7.02 -2 6 C-1.34 6 -0.68 6 0 6 C-0.2784375 4.7934375 -0.2784375 4.7934375 -0.5625 3.5625 C-0.706875 2.716875 -0.85125 1.87125 -1 1 C-0.67 0.67 -0.34 0.34 0 0 Z " fill="#5BBDF4" transform="translate(344,209)"/>
<path d="M0 0 C1.32 0.33 2.64 0.66 4 1 C3.67 2.32 3.34 3.64 3 5 C2.67 5 2.34 5 2 5 C1.67 12.92 1.34 20.84 1 29 C0.67 29 0.34 29 0 29 C0 19.43 0 9.86 0 0 Z " fill="#96D5F1" transform="translate(460,192)"/>
<path d="M0 0 C0 0.66 0 1.32 0 2 C0.99 2.33 1.98 2.66 3 3 C3 6.96 3 10.92 3 15 C2.67 15 2.34 15 2 15 C1.87882812 14.21753906 1.75765625 13.43507812 1.6328125 12.62890625 C1.46523438 11.61699219 1.29765625 10.60507813 1.125 9.5625 C0.96257812 8.55316406 0.80015625 7.54382813 0.6328125 6.50390625 C0.42398437 5.67761719 0.21515625 4.85132813 0 4 C-2.28705831 2.85647084 -3.59264762 2.89665561 -6.125 2.9375 C-8.043125 2.9684375 -8.043125 2.9684375 -10 3 C-10 2.34 -10 1.68 -10 1 C-6.78548731 -0.60725635 -3.56387464 -0.05748185 0 0 Z " fill="#87CCEE" transform="translate(360,193)"/>
<path d="M0 0 C1.31439442 2.62878883 0.79858154 4.04302616 0.375 6.9375 C-0.28898543 13.13469734 1.00092256 18.16088679 3 24 C-1.93920591 19.22012332 -1.93920591 19.22012332 -2.16796875 14.62890625 C-2.17994018 13.27347473 -2.18622485 11.91798379 -2.1875 10.5625 C-2.19974609 9.88123047 -2.21199219 9.19996094 -2.22460938 8.49804688 C-2.23555848 4.77170191 -2.12005619 3.18008429 0 0 Z " fill="#8DC9EA" transform="translate(339,193)"/>
<path d="M0 0 C0.33 0 0.66 0 1 0 C1.226875 1.258125 1.45375 2.51625 1.6875 3.8125 C2.47871753 6.95508229 2.808829 7.82949614 5.3125 10.0625 C8.36960703 11.12893269 9.9459488 10.95984466 13 10 C12.67 10.99 12.34 11.98 12 13 C9.36 13 6.72 13 4 13 C4 12.34 4 11.68 4 11 C3.360625 10.773125 2.72125 10.54625 2.0625 10.3125 C0 9 0 9 -0.8125 6.625 C-0.99255639 4.10421049 -0.79321253 2.3796376 0 0 Z " fill="#7EC7ED" transform="translate(346,201)"/>
<path d="M0 0 C3 1 3 1 5 4 C5 4.99 5 5.98 5 7 C2.03 6.505 2.03 6.505 -1 6 C-1.33 6.66 -1.66 7.32 -2 8 C-2.66 8 -3.32 8 -4 8 C-4 6.35 -4 4.7 -4 3 C-3.34 3 -2.68 3 -2 3 C-2 2.34 -2 1.68 -2 1 C-1.34 0.67 -0.68 0.34 0 0 Z " fill="#56BBF4" transform="translate(246,189)"/>
<path d="M0 0 C0.99 0.33 1.98 0.66 3 1 C2.94199219 1.67546875 2.88398438 2.3509375 2.82421875 3.046875 C2.68623024 5.77510498 2.63893483 8.28988734 3 11 C5.29857106 13.67818983 5.29857106 13.67818983 8 15 C7.01 15 6.02 15 5 15 C4.67 15.66 4.34 16.32 4 17 C-0.67289916 11.59696035 -0.44534366 6.95230941 0 0 Z " fill="#82CDF0" transform="translate(271,198)"/>
<path d="M0 0 C0.33 1.32 0.66 2.64 1 4 C-0.65 4.33 -2.3 4.66 -4 5 C-4.15149298 8.62885324 -4.15149298 8.62885324 -3 12 C-3.99 12.33 -4.98 12.66 -6 13 C-7 12 -7 12 -7.375 9.25 C-6.88162491 4.97408256 -5.24232486 3.70193739 -2 1 C-1.34 0.67 -0.68 0.34 0 0 Z " fill="#63BDF3" transform="translate(231,187)"/>
<path d="M0 0 C0.33 0.99 0.66 1.98 1 3 C1.7425 2.649375 2.485 2.29875 3.25 1.9375 C6.21122875 0.9279902 7.12062561 1.12019116 10 2 C4.4174808 5.32575612 0.50313209 6.46450943 -6 6 C-5.38125 5.7525 -4.7625 5.505 -4.125 5.25 C-1.64931313 3.79371361 -1.04874998 2.62187494 0 0 Z " fill="#8CD0F2" transform="translate(321,216)"/>
<path d="M0 0 C2.64590014 -0.02684679 5.29153096 -0.04676357 7.9375 -0.0625 C8.69224609 -0.07087891 9.44699219 -0.07925781 10.22460938 -0.08789062 C12.14994313 -0.09652441 14.07535581 -0.05224333 16 0 C17 1 17 1 17.1875 4.375 C17 8 17 8 15 11 C14.67 8.03 14.34 5.06 14 2 C7.07 1.505 7.07 1.505 0 1 C0 0.67 0 0.34 0 0 Z " fill="#81CBF5" transform="translate(118,227)"/>
<path d="M0 0 C0.33 0 0.66 0 1 0 C1.02708567 1.60407328 1.04643483 3.2082785 1.0625 4.8125 C1.07410156 5.70582031 1.08570313 6.59914062 1.09765625 7.51953125 C0.97740109 10.57401241 0.53617476 12.42093126 -1.5625 14.6875 C-5.13764048 16.61257564 -7.969847 16.20150765 -12 16 C-12 15.67 -12 15.34 -12 15 C-10.906875 14.938125 -9.81375 14.87625 -8.6875 14.8125 C-4.8525473 14.40122736 -4.8525473 14.40122736 -3.1875 11.4375 C-2.795625 10.633125 -2.40375 9.82875 -2 9 C-1.34 9 -0.68 9 0 9 C0 6.03 0 3.06 0 0 Z " fill="#63BBEB" transform="translate(363,199)"/>
<path d="M0 0 C3.96 0 7.92 0 12 0 C12 5.94 12 11.88 12 18 C11.67 18 11.34 18 11 18 C10.67 13.05 10.34 8.1 10 3 C6.7 2.34 3.4 1.68 0 1 C0 0.67 0 0.34 0 0 Z " fill="#72B7DF" transform="translate(490,174)"/>
<path d="M0 0 C0.33 0 0.66 0 1 0 C1 4.29 1 8.58 1 13 C1.66 13 2.32 13 3 13 C3.0825 13.61875 3.165 14.2375 3.25 14.875 C3.81258459 17.18437567 3.81258459 17.18437567 6.0625 18.25 C6.701875 18.4975 7.34125 18.745 8 19 C5.48327805 18.65990244 3.49822987 18.31961916 1.34375 16.9375 C-0.73601753 13.93876542 -0.31519342 10.81915775 -0.1875 7.3125 C-0.17396484 6.61060547 -0.16042969 5.90871094 -0.14648438 5.18554688 C-0.11120182 3.45670171 -0.05739583 1.72825235 0 0 Z " fill="#71C2EC" transform="translate(94,232)"/>
<path d="M0 0 C0.66 0 1.32 0 2 0 C1.67 1.65 1.34 3.3 1 5 C5.62 5 10.24 5 15 5 C15 5.33 15 5.66 15 6 C14.02417969 6.06058594 13.04835938 6.12117187 12.04296875 6.18359375 C10.13451172 6.30927734 10.13451172 6.30927734 8.1875 6.4375 C6.92292969 6.51871094 5.65835938 6.59992188 4.35546875 6.68359375 C1.00818107 6.87184547 1.00818107 6.87184547 -2 8 C-1.47731534 5.23723823 -0.89130413 2.6739124 0 0 Z " fill="#5AB3E6" transform="translate(514,195)"/>
<path d="M0 0 C0 0.99 0 1.98 0 3 C-2.64 3.33 -5.28 3.66 -8 4 C-7.34 5.98 -6.68 7.96 -6 10 C-6.99 9.67 -7.98 9.34 -9 9 C-9.25 6.1875 -9.25 6.1875 -9 3 C-6.24653799 -0.05940224 -4.00406942 -0.33367245 0 0 Z " fill="#9DD6F0" transform="translate(382,172)"/>
<path d="M0 0 C0.66 0 1.32 0 2 0 C2.33 4.62 2.66 9.24 3 14 C2.01 14 1.02 14 0 14 C0 9.38 0 4.76 0 0 Z " fill="#6CBAE4" transform="translate(115,211)"/>
<path d="M0 0 C5.29530109 0.02063104 5.29530109 0.02063104 8.375 2.3125 C8.808125 2.9725 9.24125 3.6325 9.6875 4.3125 C7.35416667 3.97916667 5.02083333 3.64583333 2.6875 3.3125 C0.8003125 3.065 0.8003125 3.065 -1.125 2.8125 C-4.3125 2.3125 -4.3125 2.3125 -6.3125 1.3125 C-4.58665266 -0.41334734 -2.35040633 0.0591493 0 0 Z " fill="#7AC1E6" transform="translate(409.3125,185.6875)"/>
<path d="M0 0 C1.9375 0.6875 1.9375 0.6875 4 2 C4.75 4.625 4.75 4.625 5 7 C6.98 7 8.96 7 11 7 C11 7.33 11 7.66 11 8 C8.36 8 5.72 8 3 8 C0 2.25 0 2.25 0 0 Z " fill="#88CCEB" transform="translate(469,211)"/>
<path d="M0 0 C2.64 0 5.28 0 8 0 C9.4783226 2.95664519 9.06032783 5.74229737 9 9 C8.67 9 8.34 9 8 9 C7.67 7.02 7.34 5.04 7 3 C5.35 2.67 3.7 2.34 2 2 C2 2.66 2 3.32 2 4 C1.34 4 0.68 4 0 4 C0 2.68 0 1.36 0 0 Z " fill="#5FB8E8" transform="translate(429,177)"/>
<path d="M0 0 C1.60355101 3.50776784 2.22036864 6.14354879 2 10 C2.66 10.33 3.32 10.66 4 11 C3.01 11 2.02 11 1 11 C-0.49821059 7.62902617 -1 5.79557881 -1 2 C-1.66 2 -2.32 2 -3 2 C-3.33 2.66 -3.66 3.32 -4 4 C-4 3.01 -4 2.02 -4 1 C-2 0 -2 0 0 0 Z " fill="#8CCCEF" transform="translate(240,187)"/>
<path d="M0 0 C0.33 0.66 0.66 1.32 1 2 C0.00390625 4.3828125 0.00390625 4.3828125 -1.4375 7.125 C-1.91058594 8.03507813 -2.38367188 8.94515625 -2.87109375 9.8828125 C-3.24363281 10.58148438 -3.61617187 11.28015625 -4 12 C-4.33 12 -4.66 12 -5 12 C-5 9.69 -5 7.38 -5 5 C-4.34 5 -3.68 5 -3 5 C-1.3553326 2.53673288 -1.3553326 2.53673288 0 0 Z " fill="#81CAEB" transform="translate(202,244)"/>
<path d="M0 0 C4.41889613 1.35021826 6.34345343 3.26115668 9 7 C8.34 7.66 7.68 8.32 7 9 C5.5 7.6875 5.5 7.6875 4 6 C4 5.01 4 4.02 4 3 C3.01 3 2.02 3 1 3 C0.67 2.01 0.34 1.02 0 0 Z " fill="#98D4EF" transform="translate(529,187)"/>
<path d="M0 0 C2.40804568 2.40804568 3.00768759 4.42203775 4.125 7.625 C4.47820312 8.62789062 4.83140625 9.63078125 5.1953125 10.6640625 C5.46085937 11.43492187 5.72640625 12.20578125 6 13 C3 12 3 12 2.05078125 10.29296875 C1.80714844 9.59816406 1.56351562 8.90335938 1.3125 8.1875 C1.06113281 7.50042969 0.80976563 6.81335938 0.55078125 6.10546875 C0 4 0 4 0 0 Z " fill="#91CEEC" transform="translate(465,178)"/>
<path d="M0 0 C0.33 0.66 0.66 1.32 1 2 C0.67 2.66 0.34 3.32 0 4 C0.66 4.33 1.32 4.66 2 5 C0.02 6.32 -1.96 7.64 -4 9 C-4.66 8.67 -5.32 8.34 -6 8 C-6 7.34 -6 6.68 -6 6 C-5.01 5.67 -4.02 5.34 -3 5 C-1.30117552 2.50240018 -1.30117552 2.50240018 0 0 Z " fill="#85CAF1" transform="translate(195,252)"/>
<path d="M0 0 C5.99725275 2.10714286 5.99725275 2.10714286 8 5 C7.6875 7.1875 7.6875 7.1875 7 9 C3 4.25 3 4.25 3 2 C2.01 1.67 1.02 1.34 0 1 C0 0.67 0 0.34 0 0 Z " fill="#84C7EA" transform="translate(325,187)"/>
<path d="M0 0 C0.66 0 1.32 0 2 0 C2 0.99 2 1.98 2 3 C0.25 4.75 0.25 4.75 -2 6 C-4.25 5.6875 -4.25 5.6875 -6 5 C-6 4.34 -6 3.68 -6 3 C-5.195625 2.87625 -4.39125 2.7525 -3.5625 2.625 C-2.716875 2.41875 -1.87125 2.2125 -1 2 C-0.67 1.34 -0.34 0.68 0 0 Z " fill="#78C5ED" transform="translate(365,215)"/>
<path d="M0 0 C2.97 0.33 5.94 0.66 9 1 C9 1.33 9 1.66 9 2 C7.9275 2.103125 6.855 2.20625 5.75 2.3125 C2.14179128 2.97400493 0.63604977 3.57483421 -2 6 C-2 4.68 -2 3.36 -2 2 C-1.34 2 -0.68 2 0 2 C0 1.34 0 0.68 0 0 Z " fill="#87C8ED" transform="translate(312,193)"/>
<path d="M0 0 C1.32 0.66 2.64 1.32 4 2 C3.4225 2.268125 2.845 2.53625 2.25 2.8125 C-0.0325868 4.01719859 -1.9737942 5.40798115 -4 7 C-4.66 6.67 -5.32 6.34 -6 6 C-4 4 -2 2 0 0 Z " fill="#89CDED" transform="translate(513,187)"/>
<path d="M0 0 C0 3.34419152 -0.47519394 4.06840321 -2.375 6.6875 C-2.81585938 7.31011719 -3.25671875 7.93273437 -3.7109375 8.57421875 C-4.13632813 9.04472656 -4.56171875 9.51523438 -5 10 C-5.66 10 -6.32 10 -7 10 C-5.6062718 5.56541027 -3.39417765 3.12621626 0 0 Z " fill="#8FCEEB" transform="translate(93,147)"/>
<path d="M0 0 C1.65 0.99 3.3 1.98 5 3 C4.34 4.65 3.68 6.3 3 8 C2.34 8 1.68 8 1 8 C1.33 6.35 1.66 4.7 2 3 C1.34 3 0.68 3 0 3 C0 2.01 0 1.02 0 0 Z " fill="#A1D1EB" transform="translate(533,210)"/>
<path d="M0 0 C0.33 0 0.66 0 1 0 C1 2.97 1 5.94 1 9 C-0.98 9.99 -0.98 9.99 -3 11 C-2.67 9.35 -2.34 7.7 -2 6 C-1.67 6 -1.34 6 -1 6 C-0.67 4.02 -0.34 2.04 0 0 Z " fill="#58B9ED" transform="translate(153,195)"/>
<path d="M0 0 C1.32 0.33 2.64 0.66 4 1 C2.7260411 3.03833424 1.38938077 5.03852126 0 7 C-0.66 7 -1.32 7 -2 7 C-1.34 4.69 -0.68 2.38 0 0 Z " fill="#66BDEB" transform="translate(341,190)"/>
<path d="M0 0 C1.99097846 2.98646769 2.94124926 5.59687262 4 9 C2.68 9 1.36 9 0 9 C0 6.03 0 3.06 0 0 Z " fill="#84CFF0" transform="translate(243,174)"/>
<path d="M0 0 C0.99 0.33 1.98 0.66 3 1 C3 2.98 3 4.96 3 7 C2.01 7 1.02 7 0 7 C0 4.69 0 2.38 0 0 Z " fill="#7EC9EF" transform="translate(114,153)"/>
<path d="M0 0 C0 3.10551666 -0.5393715 4.35261084 -2 7 C-3.32 6.67 -4.64 6.34 -6 6 C-6 5.34 -6 4.68 -6 4 C-4.36368108 2.95107762 -2.69514137 1.95093297 -1 1 C-0.67 0.67 -0.34 0.34 0 0 Z " fill="#5EBCEB" transform="translate(192,246)"/>
<path d="M0 0 C0.66 0 1.32 0 2 0 C2 1.32 2 2.64 2 4 C2.66 4 3.32 4 4 4 C4.33 5.32 4.66 6.64 5 8 C3.0625 7.375 3.0625 7.375 1 6 C0.25 2.875 0.25 2.875 0 0 Z " fill="#94D1F2" transform="translate(429,212)"/>
<path d="M0 0 C3 1 3 1 4.8125 4.375 C5.4003125 6.169375 5.4003125 6.169375 6 8 C5.01 9.485 5.01 9.485 4 11 C3.32880451 9.5437455 2.66318193 8.08492133 2 6.625 C1.62875 5.81289062 1.2575 5.00078125 0.875 4.1640625 C0 2 0 2 0 0 Z " fill="#9DD5EF" transform="translate(463,198)"/>
<path d="M0 0 C1.485 0.99 1.485 0.99 3 2 C3.40843923 4.71203652 3.13336867 7.2437142 3 10 C-0.00617269 6.99382731 0.40414684 4.17618402 0 0 Z " fill="#76C1DF" transform="translate(370,196)"/>
<path d="M0 0 C0.66 1.32 1.32 2.64 2 4 C0.625 7.25 0.625 7.25 -1 10 C-1.66 10 -2.32 10 -3 10 C-2.01 6.7 -1.02 3.4 0 0 Z " fill="#93CEEE" transform="translate(223,195)"/>
<path d="M0 0 C2.31 1.98 4.62 3.96 7 6 C6.67 6.66 6.34 7.32 6 8 C5.01 7.34 4.02 6.68 3 6 C3 5.34 3 4.68 3 4 C2.01 4 1.02 4 0 4 C0 2.68 0 1.36 0 0 Z " fill="#85C9EB" transform="translate(193,147)"/>
<path d="M0 0 C0.66 0 1.32 0 2 0 C1.5205537 4.21912747 0.83374881 6.79663178 -2 10 C-2 8.02 -2 6.04 -2 4 C-1.34 4 -0.68 4 0 4 C0 2.68 0 1.36 0 0 Z " fill="#8ECCEA" transform="translate(234,192)"/>
<path d="M0 0 C2.97 0 5.94 0 9 0 C9.33 0.66 9.66 1.32 10 2 C8.39125 1.938125 8.39125 1.938125 6.75 1.875 C3.34252515 1.9885825 1.79260369 2.21273364 -1 4 C-0.67 2.68 -0.34 1.36 0 0 Z " fill="#8ED0EF" transform="translate(401,194)"/>
<path d="M0 0 C0.99 0.33 1.98 0.66 3 1 C2.54625 1.5775 2.0925 2.155 1.625 2.75 C0.15886484 4.7800333 -0.94857784 6.73539843 -2 9 C-2 6.36 -2 3.72 -2 1 C-1.34 0.67 -0.68 0.34 0 0 Z " fill="#8EC8F0" transform="translate(97,156)"/>
<path d="M0 0 C0.33 0.99 0.66 1.98 1 3 C-0.98 3.33 -2.96 3.66 -5 4 C-5 3.01 -5 2.02 -5 1 C-3.35 0.67 -1.7 0.34 0 0 Z " fill="#51BEFB" transform="translate(382,177)"/>
<path d="M0 0 C-0.33 0.99 -0.66 1.98 -1 3 C-3.31 3.33 -5.62 3.66 -8 4 C-6.27302455 0.54604909 -3.70696841 0 0 0 Z " fill="#98D0EA" transform="translate(172,160)"/>
</svg>
